<?xml version="1.0" encoding="UTF-8"?>
<svg width="17px" height="17px" viewBox="0 0 17 17" version="1.1" xmlns="http://www.w3.org/2000/svg" xmlns:xlink="http://www.w3.org/1999/xlink">
    <title>关  闭</title>
    <g id="Style-guidle" stroke="none" stroke-width="1" fill="none" fill-rule="evenodd">
        <g id="Color-style" transform="translate(-956.000000, -315.000000)" fill="#599AF4" fill-rule="nonzero">
            <g id="关--闭" transform="translate(956.000000, 315.000000)">
                <path d="M9.81965303,8.49393371 L16.7408857,1.57391296 L16.7408857,1.57391295 C17.0860575,1.21901098 17.0860575,0.653849969 16.7408857,0.298947994 L16.7008154,0.258877752 L16.7008154,0.258877751 C16.3459135,-0.086294037 15.7807525,-0.086294037 15.4258505,0.258877752 L8.50461782,7.19226277 L1.58338515,0.258877752 L1.58338515,0.258877752 C1.22848318,-0.0862940368 0.663322167,-0.0862940368 0.308420192,0.258877752 L0.26956419,0.29894816 L0.269564212,0.298948138 C-0.0825071936,0.641988283 -0.0898301513,1.20548581 0.253209446,1.55755888 C0.258589952,1.56308106 0.264041978,1.56853309 0.269564162,1.5739136 L7.19079683,8.49393434 L0.269564162,15.4261074 L0.269564172,15.4261074 C-0.075607616,15.7810094 -0.075607616,16.3461704 0.269564152,16.7010724 L0.308420321,16.7411426 L0.308420303,16.7411426 C0.663322278,17.0863144 1.22848329,17.0863144 1.58338526,16.7411427 L8.50461793,9.82112191 L15.4258506,16.7411427 L15.4258506,16.7411426 C15.7807525,17.0863144 16.3459136,17.0863144 16.7008155,16.7411427 L16.7408858,16.7010724 L16.7408858,16.7010724 C17.0860576,16.3461704 17.0860576,15.7810094 16.7408858,15.4261075 L9.8196531,8.49272244 L9.81965303,8.49393371 Z" id="路径"></path>
            </g>
        </g>
    </g>
</svg>