<?xml version="1.0" encoding="UTF-8"?>
<svg width="16px" height="16px" viewBox="0 0 16 16" version="1.1" xmlns="http://www.w3.org/2000/svg" xmlns:xlink="http://www.w3.org/1999/xlink">
    <title>报损管理</title>
    <g id="创客页面优化3" stroke="none" stroke-width="1" fill="none" fill-rule="evenodd">
        <g id="编组" fill="#FFFFFF" fill-rule="nonzero">
            <g id="形状">
                <path d="M10.6993415,2.28322094 L2.40739389,2.28322094 C2.21064657,2.28322094 2.0503927,2.44347481 2.0503927,2.64180881 C2.0503927,2.8401428 2.21064657,3.00039667 2.40739389,3.00039667 L10.6993415,3.00039667 C10.8960889,3.00039667 11.0563427,2.8401428 11.0563427,2.64180881 C11.0563427,2.44347481 10.8960889,2.28322094 10.6993415,2.28322094 Z M11.0563427,4.84728282 C11.0563427,4.64894883 10.8960889,4.48869496 10.6993415,4.48869496 L2.40739389,4.48869496 C2.21064657,4.48869496 2.0503927,4.64894883 2.0503927,4.84728282 C2.0503927,5.04561682 2.21064657,5.20587069 2.40739389,5.20587069 L10.6993415,5.20587069 C10.8960889,5.20587069 11.0563427,5.04561682 11.0563427,4.84728282 Z M2.40739389,6.69575565 C2.21064657,6.69575565 2.0503927,6.85600952 2.0503927,7.05434351 C2.0503927,7.25267751 2.21064657,7.41293138 2.40739389,7.41293138 L7.93535898,7.41293138 C8.13210631,7.41293138 8.29236017,7.25267751 8.29236017,7.05434351 C8.29236017,6.85600952 8.13210631,6.69575565 7.93535898,6.69575565 L2.40739389,6.69575565 Z M6.62159461,8.90281634 L2.40739389,8.90281634 C2.21064657,8.90281634 2.0503927,9.06307021 2.0503927,9.2614042 C2.0503927,9.4597382 2.21064657,9.61999207 2.40739389,9.61999207 L6.62318128,9.61999207 C6.8199286,9.61999207 6.98018247,9.4597382 6.98018247,9.2614042 C6.9785958,9.06307021 6.81834193,8.90281634 6.62159461,8.90281634 L6.62159461,8.90281634 Z M5.80604522,14.6132487 L1.46967077,14.6132487 C1.27133677,14.6132487 1.1110829,14.4434748 1.1110829,14.2356208 L1.11266958,1.2391908 C1.11266958,1.03927013 1.27451012,0.877429591 1.47284411,0.877429591 L11.9528124,0.869496232 C12.1543197,0.869496232 12.3177469,1.0297501 12.3177469,1.22808409 L12.3177469,6.04839349 C12.3177469,6.24514082 12.4795875,6.40380801 12.6795081,6.40380801 C12.8794288,6.40380801 13.0412693,6.24514082 13.0412693,6.04839349 L13.0412693,1.06783023 C13.0412693,0.479174931 12.554161,0 11.954399,0 L1.31259024,0 C0.720761603,0 0.24,0.483934946 0.24,1.07735026 L0.24,14.2340341 C0.24,14.8544228 0.720761603,15.3605712 1.31100357,15.3605712 L5.80763189,15.3605712 C6.00437921,15.3605712 6.16304641,15.1939706 6.16304641,14.9861166 C6.16145974,14.7798493 6.00120587,14.6132487 5.80604522,14.6132487 L5.80604522,14.6132487 Z M11.432384,7.30503768 C9.04602935,7.30503768 7.10552955,9.25505752 7.10552955,11.6525188 C7.10552955,14.0499802 9.04602935,16 11.432384,16 C13.8187386,16 15.7592384,14.0499802 15.7592384,11.6525188 C15.7592384,9.25505752 13.8171519,7.30503768 11.432384,7.30503768 Z M11.432384,15.2828243 C9.439524,15.2828243 7.81953193,13.6533122 7.81953193,11.6525188 C7.81953193,9.65013883 9.44111067,8.02221341 11.432384,8.02221341 C13.425244,8.02221341 15.045236,9.65172551 15.045236,11.6525188 C15.045236,13.6533122 13.425244,15.2828243 11.432384,15.2828243 Z M12.3209203,11.6382388 L11.9686791,11.6382388 C11.9686791,12 11.944879,12.2649742 11.8956922,12.4331614 C11.746545,12.9662832 11.2372233,13.2978977 10.3709004,13.4264181 C10.4661008,13.5708052 10.5359143,13.6866323 10.5819278,13.7754859 C11.3324236,13.6168187 11.8369853,13.3137644 12.0971995,12.8694962 C12.5938278,13.1646172 13.0317493,13.4581515 13.4062039,13.7532725 L13.6632447,13.4454582 C13.2078699,13.1392305 12.7302816,12.8409361 12.23048,12.5537485 C12.2907735,12.3268544 12.3209203,12.0222134 12.3209203,11.6382388 Z M11.3593971,10.6957557 L12.9381357,10.6957557 L12.9381357,10.8290361 L13.2729234,10.8290361 L13.2729234,9.42641809 L11.0246093,9.42641809 L11.0246093,10.8195161 L11.3593971,10.8195161 L11.3593971,10.6957557 Z M11.3593971,9.73423245 L12.9381357,9.73423245 L12.9381357,10.3879413 L11.3593971,10.3879413 L11.3593971,9.73423245 Z M10.6596747,11.298691 C10.4819675,11.3510512 10.2979135,11.4034113 10.1059262,11.4557715 L10.1059262,10.4720349 L10.7041015,10.4720349 L10.7041015,10.1404205 L10.1043395,10.1404205 L10.1043395,9.25347084 L9.76637842,9.25347084 L9.76637842,10.1404205 L9.16185641,10.1404205 L9.16185641,10.4720349 L9.76637842,10.4720349 L9.76637842,11.5477985 C9.5585244,11.6001587 9.34432368,11.6525188 9.12060294,11.7032923 L9.16661642,12.0904403 C9.38081714,12.0269734 9.5807378,11.9666799 9.76637842,11.9111464 L9.76637842,13.1297104 C9.76637842,13.291551 9.70291154,13.3740579 9.57439111,13.3740579 C9.48553749,13.3740579 9.34749702,13.3629512 9.15709639,13.3423245 C9.18406981,13.4581515 9.20469655,13.5803253 9.21738992,13.7056724 C9.39668386,13.712019 9.5585244,13.7136057 9.70291154,13.7104324 C9.9710591,13.7040857 10.1059262,13.5311384 10.1059262,13.190004 L10.1059262,11.8095994 C10.3248869,11.7445458 10.5216343,11.690599 10.6914082,11.6445855 C10.6755415,11.5477985 10.6644347,11.4335581 10.6596747,11.298691 L10.6596747,11.298691 Z M11.1721698,11.4319714 L13.1126696,11.4319714 L13.1126696,12.788576 L13.4474574,12.788576 L13.4474574,11.1241571 L10.837382,11.1241571 L10.837382,12.798096 L11.1721698,12.798096 L11.1721698,11.4319714 Z"></path>
            </g>
        </g>
    </g>
</svg>