<?xml version="1.0" encoding="UTF-8"?>
<svg width="16px" height="16px" viewBox="0 0 16 16" version="1.1" xmlns="http://www.w3.org/2000/svg" xmlns:xlink="http://www.w3.org/1999/xlink">
    <title>采购管理</title>
    <g id="创客页面优化3" stroke="none" stroke-width="1" fill="none" fill-rule="evenodd">
        <g id="编组" fill="#FFFFFF" fill-rule="nonzero">
            <g id="采购管理">
                <path d="M5.61989835,10.9045043 L5.61989836,10.9045043 C5.28284782,10.9032568 5.01062533,10.6290128 5.01186839,10.2919623 C5.01186839,10.2912078 5.01186839,10.2904533 5.01186839,10.2896988 C5.01186839,9.9495332 5.28312067,9.674893 5.61989784,9.674893 L10.3722144,9.674893 L10.3722144,9.674893 C10.7092649,9.67613124 10.9814939,9.95036802 10.9802606,10.2874186 C10.9802606,10.288184 10.9802606,10.2889494 10.9802606,10.2897148 C10.9802606,10.628751 10.7090083,10.9045043 10.3767326,10.9045043 L5.6187687,10.9045043 L5.61989835,10.9045043 Z M11.7340394,4.26936851 L4.26146225,4.26936851 L4.26146216,4.26936886 C4.18596377,4.57746907 4.14801749,4.89357048 4.14845029,5.21078498 L4.14845029,6.86985536 C4.14845029,7.20890784 3.87721485,7.48466114 3.54042131,7.48466114 L3.54042128,7.48466114 C3.20337402,7.48279001 2.93165897,7.20804192 2.93353159,6.87099465 C2.9335337,6.87061488 2.93353616,6.87023512 2.93353898,6.86985536 L2.93353898,5.20852604 C2.93353898,4.88756138 2.96292145,4.57338989 3.01942747,4.26823775 L1.50726946,4.26823775 L1.50726947,4.26823775 C1.39568187,4.27006023 1.30566477,4.36008474 1.30385107,4.47167251 L1.30385107,14.4757913 C1.30385107,14.5865444 1.39764583,14.6803555 1.50726947,14.6803555 L14.4927518,14.6803555 C14.6023755,14.6803555 14.6961702,14.5865444 14.6961702,14.4769208 L14.6961702,4.47393144 L14.6961702,4.47393168 C14.6949618,4.3619031 14.6047721,4.2712057 14.4927518,4.26936745 L12.9771891,4.26936745 C13.0336951,4.57451959 13.0630776,4.88869109 13.0630776,5.21078521 L13.0630776,6.8698556 C13.0630776,7.20550331 12.7918421,7.48466137 12.4550649,7.48466137 L12.455065,7.48466137 C12.1180144,7.48342306 11.8457854,7.20918635 11.8470229,6.87213581 C11.8470257,6.87137587 11.8470299,6.87061593 11.8470355,6.86985601 L11.8470355,5.20852669 L11.8470355,5.20857877 C11.8473814,4.89174076 11.8094398,4.57602238 11.7340359,4.26823775 L11.7340394,4.26936851 Z M11.1915686,3.03975714 L11.1915686,3.03975714 C10.4826015,1.96713149 9.28350839,1.32090693 7.99775094,1.31854978 L7.9977508,1.31854978 C6.71221433,1.32066344 5.51315565,1.96643253 4.8039331,3.03862768 L11.1915686,3.03862768 L11.1915686,3.03975714 Z M3.41158031,3.03975696 C4.22076875,1.29820285 5.97365025,0.0889380468 7.99775082,0.0889380468 C10.0229809,0.0889380468 11.7747165,1.29820285 12.5850508,3.03975696 L14.4927509,3.03975696 C15.2748158,3.03975696 15.9110815,3.68394521 15.9110815,4.47393273 L15.9110815,14.4769057 L15.9110815,14.4769759 C15.9110815,15.2642199 15.2764904,15.9043012 14.4892758,15.9110813 L1.50726366,15.9110813 C0.725198759,15.9110813 0.0889331378,15.266893 0.0889331378,14.4769218 L0.0889331378,4.47393253 C0.0889331378,3.68281554 0.725198759,3.03975675 1.50726366,3.03975675 L3.41159177,3.03975675 L3.41158031,3.03975696 Z" id="形状"></path>
            </g>
        </g>
    </g>
</svg>