<?xml version="1.0" encoding="UTF-8"?>
<svg width="16px" height="16px" viewBox="0 0 16 16" version="1.1" xmlns="http://www.w3.org/2000/svg" xmlns:xlink="http://www.w3.org/1999/xlink">
    <title>仓库作业管理</title>
    <g id="创客页面优化3" stroke="none" stroke-width="1" fill="none" fill-rule="evenodd">
        <g id="编组" fill="#FFFFFF" fill-rule="nonzero">
            <g id="仓库作业管理">
                <path d="M9.42829315,9.37844934 C9.86141866,8.99860515 10.1329815,8.44860451 10.1329815,7.83501005 C10.1329815,6.68860246 9.17563661,5.76047638 8.00001024,5.76047638 C6.82266512,5.76047638 5.86703901,6.69032122 5.86703901,7.8367288 C5.86703901,8.44688576 6.13688307,8.9934489 6.56485232,9.37329309 C5.23453827,9.91813747 4.29438093,11.2003265 4.29438093,12.6922032 L4.29438093,12.7042345 C4.29609968,12.9654848 4.51781869,13.1751725 4.785944,13.1751725 C5.05578806,13.1734538 5.27578832,12.9603285 5.27406957,12.6956407 L5.27406957,12.6870469 C5.27578832,11.231264 6.49266474,10.0453251 7.98969773,10.0453251 C9.48501197,10.0453251 10.7036071,11.231264 10.7053259,12.6870469 L10.7053259,12.6956407 C10.7036071,12.9586098 10.9236074,13.1734538 11.1951702,13.1751725 C11.4632955,13.1751725 11.6832958,12.9654848 11.6850145,12.7025157 L11.6850145,12.6904844 C11.6850145,11.203764 10.7534509,9.92501248 9.42829315,9.37844934 L9.42829315,9.37844934 Z M8.00001024,8.95907386 C7.364072,8.95907386 6.84672765,8.45547952 6.84672765,7.8367288 C6.84672765,7.21797808 7.364072,6.71438374 8.00001024,6.71438374 C8.63594848,6.71438374 9.15329283,7.21797808 9.15329283,7.8367288 C9.15329283,8.45547952 8.63594848,8.95907386 8.00001024,8.95907386 Z M15.3408,6.97563405 L9.74110602,1.03734589 C9.28735549,0.55781408 8.65141725,0.281095008 7.99141648,0.281095008 C7.33141571,0.281095008 6.69547747,0.556095328 6.24172694,1.03734589 L0.638595424,6.9739153 C0.281095008,7.35032198 0.184844896,7.90204138 0.389376384,8.37813568 C0.595626624,8.85594874 1.05968966,9.16360534 1.57703402,9.16360534 L2.06172208,9.1721991 L2.06172208,13.9142359 C2.06172208,14.8354869 2.65812902,15.6931442 3.57594259,15.6931442 L12.2625152,15.6931442 C13.1803288,15.6931442 13.9159546,14.9678308 13.9159546,13.9142359 L13.9159546,9.1721991 L14.4006427,9.16360534 C14.917987,9.16360534 15.3854876,8.85422998 15.5883003,8.37813568 C15.7945506,7.90376013 15.6965817,7.35204074 15.3408,6.97563405 Z M14.5811116,7.94501018 C14.5450179,8.03266653 14.4625178,8.06188531 14.4023614,8.06188531 L13.379704,8.06188531 C13.0754849,8.06188531 12.7334532,8.27501056 12.7334532,8.57922966 L12.7334532,13.9142359 C12.7334532,14.2270487 12.4515779,14.5072053 12.1404838,14.5072053 L3.84234915,14.5072053 C3.53125504,14.5072053 3.24937971,14.2270487 3.24937971,13.9142359 L3.24937971,8.57922966 C3.24937971,8.27329181 2.76812915,8.06188531 2.4621913,8.06188531 L1.57875277,8.06188531 C1.51859645,8.06188531 1.43609635,8.03266653 1.40000256,7.94501018 C1.36047126,7.85735382 1.3948463,7.77657248 1.43609635,7.73360368 L7.03922787,1.79703427 C7.28844691,1.53062771 7.6253223,1.38625254 7.98969773,1.38625254 C8.35407315,1.38625254 8.69094854,1.53406522 8.94016758,1.79703427 L14.5450179,7.73360368 C14.5845492,7.77657248 14.6189242,7.85735382 14.5811116,7.94501018 Z" id="形状"></path>
            </g>
        </g>
    </g>
</svg>