<?xml version="1.0" encoding="UTF-8"?>
<svg width="16px" height="16px" viewBox="0 0 16 16" version="1.1" xmlns="http://www.w3.org/2000/svg" xmlns:xlink="http://www.w3.org/1999/xlink">
    <title>仓库配置</title>
    <g id="创客页面优化3" stroke="none" stroke-width="1" fill="none" fill-rule="evenodd">
        <g id="编组" fill="#FFFFFF" fill-rule="nonzero">
            <g id="仓库配置">
                <path d="M7.05469664,14.627518 L3.64125517,14.627518 C2.99844192,14.627518 2.47422256,14.1032986 2.47422256,13.4604853 L2.48281632,5.78625766 C2.48281632,5.6487575 2.42953501,5.51813235 2.33156614,5.42188224 C2.31094112,5.40125722 2.2903161,5.38235094 2.26625357,5.36688218 L7.57204099,1.44125261 C7.84360381,1.3020337 8.16157293,1.3020337 8.43313574,1.44125261 L13.7732982,5.38063219 C13.6409543,5.4734448 13.553298,5.62813248 13.553298,5.80344518 L13.553298,6.90344646 C13.553298,7.1887593 13.7836107,7.41907206 14.0689236,7.41907206 C14.3542364,7.41907206 14.5845492,7.1887593 14.5845492,6.90344646 L14.5845492,6.31735203 L15.2118936,6.31563328 C15.4336126,6.31563328 15.6312691,6.17125811 15.7000192,5.95985162 C15.7687693,5.74844512 15.6948629,5.5164136 15.5161127,5.3840697 L9.01579267,0.588751616 C8.99860515,0.5750016 8.97969888,0.562970336 8.95907386,0.552657824 C8.35922941,0.220938688 7.64422858,0.220938688 7.04438413,0.552657824 C7.02547786,0.562970336 7.00657158,0.5750016 6.98766531,0.588751616 L0.525157792,5.37031968 C0.346407584,5.50266358 0.272501248,5.7346951 0.34297008,5.9461016 C0.413438912,6.1575081 0.60937664,6.30016451 0.8328144,6.30016451 L1.45156512,6.30016451 L1.44297136,13.4587666 C1.44297136,14.6704868 2.42953501,15.6570504 3.64125517,15.6570504 L7.05469664,15.6570504 C7.34000947,15.6570504 7.57032224,15.4267376 7.57032224,15.1414248 C7.57032224,14.856112 7.34000947,14.627518 7.05469664,14.627518 Z M11.2639203,9.1257928 C10.115794,9.1257928 9.18079286,10.0607939 9.18079286,11.2089202 C9.18079286,12.3570466 10.115794,13.2920476 11.2639203,13.2920476 C12.4120466,13.2920476 13.3470477,12.3570466 13.3470477,11.2089202 C13.3470477,10.0607939 12.4120466,9.1257928 11.2639203,9.1257928 Z M11.2639203,12.2607964 C10.6847009,12.2607964 10.2120441,11.7881396 10.2120441,11.2089202 C10.2120441,10.6297008 10.6847009,10.157044 11.2639203,10.157044 C11.8431397,10.157044 12.3157965,10.6297008 12.3157965,11.2089202 C12.3157965,11.7881396 11.8431397,12.2607964 11.2639203,12.2607964 Z M15.1345498,10.1587628 C14.6739243,9.90438746 14.5828304,9.68954346 14.7254868,9.20141789 C14.8354869,8.81641744 14.7375181,8.40563571 14.467674,8.12719789 L14.3525176,8.0120415 L14.3456426,8.0051665 C14.065486,7.73532243 13.6529856,7.63735357 13.2697039,7.74907245 C12.7815783,7.89001011 12.5667343,7.79891626 12.312359,7.33829072 C12.1232963,6.99454032 11.7692334,6.77454006 11.3876704,6.7625088 C11.3429829,6.76079005 11.3000141,6.76079005 11.2639203,6.76079005 C11.224389,6.76079005 11.1831389,6.76079005 11.1367326,6.7625088 C10.7551697,6.77625882 10.4028255,6.99625907 10.2137628,7.33829072 C9.95938752,7.79891626 9.74454352,7.89001011 9.25641795,7.74907245 C8.8714175,7.63907232 8.46063578,7.73704118 8.18219795,8.00688525 L8.06704157,8.12204163 L8.06016656,8.12891664 C7.7903225,8.40907322 7.69235363,8.8215737 7.80407251,9.20485539 C7.94501018,9.69298096 7.85391632,9.90782496 7.39329078,10.1622003 C7.04954038,10.351263 6.82954013,10.7053259 6.81750886,11.0868888 C6.81579011,11.1315764 6.81579011,11.1745452 6.81579011,11.2123577 C6.81579011,11.2501703 6.81579011,11.2931391 6.81750886,11.3395454 C6.83125888,11.7211083 7.05125914,12.0751712 7.39329078,12.2625152 C7.85391632,12.5168905 7.94501018,12.7317345 7.80407251,13.2198601 C7.69407238,13.6048605 7.79204125,14.0156422 8.06016656,14.2957988 L8.17532294,14.4109552 L8.18219795,14.4178302 C8.46235453,14.6876743 8.87485501,14.7856431 9.2581367,14.6739243 C9.74626227,14.5329866 9.96110627,14.6240804 10.2154816,15.084706 C10.4045443,15.4284564 10.7586072,15.6484566 11.1401701,15.6604879 C11.1848577,15.6622067 11.2278265,15.6622067 11.2639203,15.6622067 C11.3017328,15.6622067 11.3447016,15.6622067 11.3911079,15.6604879 C11.7726709,15.6467379 12.125015,15.4267376 12.3140778,15.084706 C12.5684531,14.6240804 12.7832971,14.5329866 13.2714226,14.6739243 C13.6564231,14.7839244 14.0672048,14.6859555 14.3456426,14.4178302 L14.460799,14.3026738 L14.467674,14.2957988 C14.7375181,14.0156422 14.8354869,13.6031418 14.7237681,13.2198601 C14.5828304,12.7317345 14.6739243,12.5168905 15.1345498,12.2625152 C15.4783002,12.0734525 15.6983004,11.7193896 15.7103317,11.3378266 C15.7120505,11.2931391 15.7120505,11.2501703 15.7120505,11.2123577 C15.7120505,11.1745452 15.7120505,11.1332951 15.7103317,11.0868888 C15.6983004,10.7018884 15.4783002,10.3478255 15.1345498,10.1587628 L15.1345498,10.1587628 Z M14.6790805,11.2879828 L14.6790805,11.3017328 C14.6790805,11.3172016 14.6636117,11.3412641 14.6378305,11.3550141 L14.6361117,11.3567329 C14.1926737,11.6007957 13.9039234,11.8929835 13.7526732,12.2504839 C13.5997043,12.6114219 13.5928292,13.0222036 13.7337669,13.5034541 C13.7423607,13.5343917 13.7372044,13.5618917 13.7268919,13.573923 L13.628923,13.6718918 C13.615173,13.6839231 13.5859542,13.6873606 13.5584542,13.6787668 C13.0754849,13.5378292 12.6664219,13.5447042 12.305484,13.6976731 C11.9479836,13.8489233 11.6557957,14.1376736 11.411733,14.5811116 C11.3979829,14.6068929 11.3739204,14.6240804 11.3532954,14.6240804 L11.3447016,14.6240804 C11.3017328,14.6257992 11.2295452,14.6257992 11.1865764,14.6240804 L11.1745452,14.6240804 C11.1590764,14.6240804 11.1350139,14.6086117 11.1212639,14.5828304 L11.1195451,14.5811116 C10.8754823,14.1376736 10.5832945,13.8489233 10.2257941,13.6976731 C10.0367314,13.6168918 9.83563738,13.5773605 9.61735587,13.5773605 C9.41798064,13.5773605 9.20313664,13.6117355 8.97282387,13.6770481 C8.94188634,13.6856419 8.9143863,13.6804856 8.90235504,13.6701731 L8.80438618,13.5722042 C8.79235491,13.5584542 8.78891741,13.5292354 8.79751117,13.5017354 C8.93844883,13.0187661 8.93157382,12.6097031 8.7786049,12.2487652 C8.62735472,11.8912648 8.33860438,11.5990769 7.89516637,11.3550141 C7.86938509,11.3412641 7.85219757,11.3172016 7.85219757,11.2965766 L7.85219757,11.2879828 C7.85047882,11.265639 7.85047882,11.2364203 7.85047882,11.2089202 C7.85047882,11.1814202 7.85047882,11.1504827 7.85219757,11.1298576 L7.85219757,11.1161076 C7.85219757,11.1006388 7.86766634,11.0765763 7.89344762,11.0628263 L7.89516637,11.0611076 C8.33860438,10.8170448 8.62735472,10.5248569 8.7786049,10.1673565 C8.93157382,9.80641859 8.93844883,9.39563686 8.79751117,8.9143863 C8.78891741,8.88344877 8.79407366,8.85594874 8.80438618,8.84391747 L8.90235504,8.74594861 C8.91610506,8.73391734 8.94532384,8.73047984 8.97282387,8.7390736 C9.45579318,8.88001126 9.86485616,8.87313626 10.2257941,8.72016733 C10.5832945,8.56891715 10.8754823,8.28016682 11.1195451,7.8367288 C11.1332951,7.81094752 11.1573577,7.79376 11.1779827,7.79376 L11.1865764,7.79376 C11.2089202,7.79204125 11.2347015,7.79204125 11.265639,7.79204125 C11.2931391,7.79204125 11.3223579,7.79204125 11.3447016,7.79376 L11.3584516,7.79376 C11.3739204,7.79376 11.3979829,7.80922877 11.411733,7.83501005 L11.4134517,7.8367288 C11.6575145,8.28016682 11.9497023,8.56891715 12.3072028,8.72016733 C12.6681407,8.87313626 13.0789224,8.88001126 13.560173,8.7390736 C13.5911105,8.73047984 13.6186105,8.7356361 13.6306418,8.74594861 L13.7286107,8.84391747 C13.7406419,8.85766749 13.7440794,8.88688627 13.7354857,8.9143863 C13.594548,9.39735562 13.601423,9.80641859 13.7543919,10.1673565 C13.9056421,10.5248569 14.1943924,10.8170448 14.6378305,11.0611076 L14.6395492,11.0628263 C14.6636117,11.0765763 14.6807993,11.0972013 14.6807993,11.1161076 L14.6807993,11.1298576 C14.682518,11.1504827 14.682518,11.1797014 14.682518,11.2089202 C14.6807993,11.2364203 14.6807993,11.265639 14.6790805,11.2879828 L14.6790805,11.2879828 Z" id="形状"></path>
            </g>
        </g>
    </g>
</svg>