<?xml version="1.0" encoding="UTF-8"?>
<svg width="16px" height="16px" viewBox="0 0 16 16" version="1.1" xmlns="http://www.w3.org/2000/svg" xmlns:xlink="http://www.w3.org/1999/xlink">
    <title>出库管理</title>
    <g id="创客页面优化3" stroke="none" stroke-width="1" fill="none" fill-rule="evenodd">
        <g id="编组" fill="#FFFFFF" fill-rule="nonzero">
            <g id="出库管理">
                <path d="M14.3221234,15.3650934 L1.67789816,15.3650934 L1.67789813,15.3650934 C0.910524206,15.36963 0.284978084,14.709776 0.280702914,13.8912418 C0.280674164,13.8857373 0.280674164,13.8802326 0.280702915,13.874728 L0.280702915,4.66096286 L0.280702856,4.66095937 C0.275805372,4.36986816 0.350945898,4.08362081 0.496845871,3.83756789 L1.9249171,1.24388066 L1.92491712,1.24388064 C2.18170952,0.81187733 2.62643389,0.548338251 3.10596931,0.544 L12.9326534,0.544 L12.9326534,0.544 C13.4368882,0.570703592 13.888399,0.885482854 14.1137074,1.36739341 L15.5109027,3.94461922 L15.5803764,4.10106391 L15.5803765,4.10106408 C15.6728793,4.3646128 15.7224822,4.64308488 15.7270432,4.92445749 L15.7270432,13.9817715 L15.7270432,13.9817714 C15.6531772,14.7550125 15.0506275,15.3482933 14.3221299,15.3650934 L14.3221234,15.3650934 Z M13.1487893,2.00964556 L13.1487893,2.00964557 C13.0799973,1.86425474 12.9385986,1.77440161 12.7859825,1.77909495 L3.09824587,1.77909495 L3.09824586,1.77909495 C2.94562955,1.77440057 2.80423072,1.86425416 2.73543903,2.00964557 L1.71649047,3.91991744 L14.2217682,3.91991744 L13.1487893,2.00964556 Z M14.5614225,5.17971416 L1.43860625,5.17971416 L1.43860625,13.6606661 L1.43860625,13.6606659 C1.45690463,13.9113427 1.64359728,14.1104815 1.87860676,14.1299998 L14.044241,14.1299998 L14.044241,14.1299998 C14.2947428,14.1163412 14.5045825,13.9230336 14.5537153,13.6606659 L14.5614225,5.17971416 Z M7.9845782,6.17600013 L5.7768503,8.67088022 L7.40562473,8.66264629 L7.40562473,12.9442951 L8.56352081,12.9442951 L8.56352081,8.66264629 L10.2000133,8.67088022 L7.9845782,6.17600013 Z" id="形状"></path>
            </g>
        </g>
    </g>
</svg>