<?xml version="1.0" encoding="UTF-8"?>
<svg width="12px" height="12px" viewBox="0 0 12 12" version="1.1" xmlns="http://www.w3.org/2000/svg" xmlns:xlink="http://www.w3.org/1999/xlink">
    <title>日历</title>
    <g id="快捷回复" stroke="none" stroke-width="1" fill="none" fill-rule="evenodd">
        <g id="智慧小金-添加-图片" transform="translate(-225.000000, -408.000000)" fill="#599AF4" fill-rule="nonzero">
            <g id="日历" transform="translate(225.000000, 408.000000)">
                <path d="M8.72727969,1.09091025 L8.72727969,2.72727153 L8.7272797,2.72723999 C8.72708252,3.29812659 9.16706263,3.77261933 9.73634025,3.81545258 L9.81818995,3.81818222 L9.81818999,3.81818222 C10.3890766,3.81836287 10.8635564,3.37836882 10.9063733,2.80909003 L10.9091006,2.72727185 L10.9091006,1.09091025 L10.9091005,1.09091025 C11.5115938,1.09091025 12.0000108,1.57932755 12.0000108,2.18182083 L12.0000108,10.9091005 L12.0000108,10.9091005 C12.0000108,11.5115938 11.5115938,12.0000108 10.9091005,12.0000108 C10.9091005,12.0000108 10.9091005,12.0000108 10.9091005,12.0000108 L1.0909094,12.0000108 L1.09090936,12.0000108 C0.488416078,12.0000108 -8.96656275e-07,11.5115938 -8.96656275e-07,10.9091005 C-8.96656275e-07,10.9091005 -8.96656275e-07,10.9091005 -8.96656275e-07,10.9091005 L-8.96656275e-07,2.18182083 L-8.96656275e-07,2.18182066 C-8.96656275e-07,1.57932738 0.488416078,1.09091025 1.09090936,1.09091025 L1.09090936,2.72727169 L1.09090936,2.72727147 C1.08821305,3.32975889 1.57443961,3.82035673 2.17692703,3.82305321 C2.75143942,3.82562432 3.22948528,3.38217809 3.27000291,2.8090907 L3.27273003,2.72727217 L3.27273003,1.09091025 L8.72728716,1.09091025 L8.72727969,1.09091025 Z M11.2500171,4.43946493 L0.750000872,4.43946493 L0.750000872,11.0580234 L0.750000872,11.0580234 C0.750984835,11.1469039 0.813178602,11.2233458 0.900001047,11.2423877 L0.938182888,11.2467513 L11.0618353,11.2467513 L11.0618353,11.2467513 C11.1506922,11.2450011 11.2267347,11.1824974 11.2456535,11.0956601 L11.2500171,11.0580236 L11.2500171,4.44001594 L11.2500171,4.43946493 Z M3.87273498,9.20565017 L3.87273498,10.0838332 L2.14200249,10.0838332 L2.14200249,9.20565017 L3.87273498,9.20565017 Z M6.87928925,9.20565017 L6.87928925,10.0838332 L5.16273648,10.0838332 L5.16273648,9.20565017 L6.87873847,9.20565017 L6.87928925,9.20565017 Z M9.85856225,9.20565017 L9.85856225,10.0838332 L8.16982982,10.0838332 L8.16982982,9.20565017 L9.85856225,9.20565017 Z M3.87219591,7.51746851 L3.87219591,8.35474253 L2.14201421,8.35474253 L2.14201421,7.51746851 L3.87219591,7.51746851 Z M6.87875019,7.51746851 L6.87875019,8.35474253 L5.1627482,8.35474253 L5.1627482,7.51746851 L6.87875019,7.51746851 Z M9.85802319,7.51746851 L9.85802319,8.35474253 L8.16929076,8.35474253 L8.16929076,7.51746851 L9.85802319,7.51746851 Z M3.87219591,5.78728681 L3.87219591,6.63874288 L2.14201421,6.63874288 L2.14201421,5.78728681 L3.87219591,5.78728681 L3.87219591,5.78728681 Z M6.87875019,5.78728681 L6.87875019,6.63874288 L5.1627482,6.63874288 L5.1627482,5.78728681 L6.87875019,5.78728681 L6.87875019,5.78728681 Z M9.85802319,5.78728681 L9.85802319,6.63874288 L8.16929076,6.63874288 L8.16929076,5.78728681 L9.85802319,5.78728681 Z M9.81819114,-1.35224946e-06 C10.1194372,-1.35224946e-06 10.3636469,0.244208487 10.3636469,0.545455713 L10.3636469,2.72719861 C10.3636469,3.02844467 10.1194384,3.27265433 9.81819115,3.27265433 C9.5170072,3.27265433 9.2728245,3.02854311 9.27273543,2.72735916 L9.27273543,0.545454361 C9.27273543,0.274332912 9.47054431,0.0494109435 9.72971446,0.00713776426 L9.81819114,-1.35224946e-06 Z M2.18182283,1.2390089e-13 C2.48306888,1.2390089e-13 2.72727855,0.244208487 2.72727855,0.545455713 L2.72727855,2.72735851 C2.72727855,3.02860457 2.48307006,3.27281423 2.18182283,3.27281423 C1.91070139,3.27281423 1.68577942,3.07500535 1.64350624,2.81583435 L1.63636712,2.72719861 L1.63636712,2.72719861 L1.63636712,0.545457877 C1.63636712,0.274336428 1.83417601,0.0494127069 2.09334617,0.0071391771 L2.18182283,1.2390089e-13 Z" id="形状"></path>
            </g>
        </g>
    </g>
</svg>