<?xml version="1.0" encoding="UTF-8"?>
<svg width="16px" height="16px" viewBox="0 0 16 16" version="1.1" xmlns="http://www.w3.org/2000/svg" xmlns:xlink="http://www.w3.org/1999/xlink">
    <title>订单管理</title>
    <g id="创客页面优化3" stroke="none" stroke-width="1" fill="none" fill-rule="evenodd">
        <g id="编组" fill="#FFFFFF" fill-rule="nonzero">
            <g id="订单管理">
                <path d="M14.2626101,11.2093296 L15.1927878,10.6079789 L14.8408287,9.7560654 L13.7598113,10.0066282 C13.6089717,9.80617795 13.4078522,9.60572772 13.2067326,9.45539005 L13.458132,8.37797006 L12.6033741,8.02718216 L12.0251555,8.95426448 C11.7486162,8.90415192 11.4972168,8.90415192 11.2206775,8.95426448 L10.6424589,8.02718216 L9.78770092,8.37797006 L10.0139604,9.45539005 C9.81284086,9.60572772 9.61172135,9.80617795 9.46088172,10.0066282 L8.40500427,9.7560654 L8.05304513,10.6079789 L8.98322287,11.2093296 C8.93294299,11.4849486 8.93294299,11.7355114 8.98322287,12.0111305 L8.05304513,12.5874249 L8.40500427,13.4393384 L9.48602166,13.2138319 C9.63686129,13.4142821 9.8379808,13.6147323 10.0391003,13.76507 L9.78770092,14.84249 L10.6424589,15.1932779 L11.2458174,14.2661956 C11.4972168,14.3163081 11.7737561,14.3163081 12.0251555,14.2661956 L12.628514,15.1932779 L13.483272,14.84249 L13.2318726,13.76507 C13.4329921,13.6147323 13.6341116,13.4142821 13.7849512,13.2138319 L14.8659686,13.4643947 L15.2179278,12.6124812 L14.28775,12.0361868 C14.31289,11.7355114 14.31289,11.4598924 14.2626101,11.2093296 L14.2626101,11.2093296 Z M13.2067326,12.236637 C12.8547735,13.1136067 11.8491759,13.5145072 10.9692781,13.138663 C10.1145201,12.7878751 9.68714117,11.785624 10.0642403,10.9086542 C10.4161994,10.0567407 11.421797,9.630784 12.3016948,10.0066282 C13.1564528,10.3824724 13.5838317,11.3847235 13.2067326,12.236637 Z M3.67869572,4.84503476 L10.0139604,4.84503476 L10.0139604,5.9725673 L3.67869572,5.9725673 L3.67869572,4.84503476 Z M3.67869572,8.02718216 L8.05304513,8.02718216 L8.05304513,9.15471471 L3.67869572,9.15471471 L3.67869572,8.02718216 Z M3.67869572,10.8585417 L6.84632805,10.8585417 L6.84632805,11.9860742 L3.67869572,11.9860742 L3.67869572,10.8585417 Z M8.02790519,14.1659705 L2.39655882,14.1659705 C1.76806035,14.1659705 1.16470181,13.5145072 1.16470181,12.9131565 L1.16470181,5.32110406 C1.16470181,4.76986592 1.81834023,4.66964081 2.39655882,4.66964081 L4.10607468,4.66964081 C4.40775395,4.66964081 4.68429328,4.41907802 4.68429328,4.0933464 L4.68429328,2.36446316 C4.68429328,1.86333759 4.68429328,1.21187434 5.08653231,1.11164923 L9.88826068,1.11164923 C10.5167592,1.11164923 11.1452576,1.76311247 11.1452576,2.38951944 L11.1452576,7.07504357 L12.1508552,7.07504357 L12.1508552,2.38951944 C12.1508552,1.13670551 11.1452576,0.134454355 9.88826068,0.134454355 L4.68429328,0.134454355 C4.08093475,0.134454355 3.50271615,0.685692488 2.54739846,1.68794364 C2.42169876,1.81322503 2.27085913,1.9635627 2.14515943,2.11390038 C1.9943198,2.26423805 1.8686201,2.38951944 1.71778047,2.51480084 C0.737322843,3.49199571 0.159104244,4.06829012 0.159104244,4.64458453 L0.159104244,12.9131565 C0.159104244,14.1659705 1.16470181,15.1682216 2.42169876,15.1682216 L8.05304513,15.1682216 L8.05304513,14.1659705 L8.02790519,14.1659705 Z" id="形状"></path>
            </g>
        </g>
    </g>
</svg>