<?xml version="1.0" encoding="UTF-8"?>
<svg width="16px" height="16px" viewBox="0 0 16 16" version="1.1" xmlns="http://www.w3.org/2000/svg" xmlns:xlink="http://www.w3.org/1999/xlink">
    <title>发货规则配置</title>
    <g id="创客页面优化3" stroke="none" stroke-width="1" fill="none" fill-rule="evenodd">
        <g id="编组" fill="#FFFFFF" fill-rule="nonzero">
            <g id="发货规则配置">
                <path d="M6.90000896,3.60000512 L13.5000166,3.60000512 L13.5000166,4.7000064 L6.90000896,4.7000064 L6.90000896,3.60000512 Z M6.90000896,5.80000768 L13.5000166,5.80000768 L13.5000166,6.90000896 L6.90000896,6.90000896 L6.90000896,5.80000768 Z M6.90000896,9.10001152 L13.5000166,9.10001152 L13.5000166,10.2000128 L6.90000896,10.2000128 L6.90000896,9.10001152 Z M6.90000896,11.3000141 L13.5000166,11.3000141 L13.5000166,12.4000154 L6.90000896,12.4000154 L6.90000896,11.3000141 Z M12.950016,15.7000192 L3.05000448,15.7000192 C1.51000269,15.7000192 0.30000128,14.4900178 0.30000128,12.950016 L0.30000128,3.05000448 C0.30000128,1.51000269 1.51000269,0.30000128 3.05000448,0.30000128 L12.950016,0.30000128 C14.4900178,0.30000128 15.7000192,1.51000269 15.7000192,3.05000448 L15.7000192,12.950016 C15.7000192,14.4900178 14.4900178,15.7000192 12.950016,15.7000192 Z M3.05000448,1.40000256 C2.17000346,1.40000256 1.40000256,2.17000346 1.40000256,3.05000448 L1.40000256,12.950016 C1.40000256,13.830017 2.17000346,14.6000179 3.05000448,14.6000179 L12.950016,14.6000179 C13.830017,14.6000179 14.6000179,13.830017 14.6000179,12.950016 L14.6000179,3.05000448 C14.6000179,2.17000346 13.830017,1.40000256 12.950016,1.40000256 L3.05000448,1.40000256 Z M5.03000678,6.90000896 L3.27000474,6.90000896 C2.83000422,6.90000896 2.50000384,6.57000858 2.50000384,6.13000806 L2.50000384,4.37000602 C2.50000384,3.9300055 2.83000422,3.60000512 3.27000474,3.60000512 L5.03000678,3.60000512 C5.4700073,3.60000512 5.80000768,3.9300055 5.80000768,4.37000602 L5.80000768,6.13000806 C5.80000768,6.57000858 5.4700073,6.90000896 5.03000678,6.90000896 L5.03000678,6.90000896 Z M3.60000512,5.80000768 L4.7000064,5.80000768 L4.7000064,4.7000064 L3.60000512,4.7000064 L3.60000512,5.80000768 Z M5.03000678,12.4000154 L3.27000474,12.4000154 C2.83000422,12.4000154 2.50000384,12.070015 2.50000384,11.6300145 L2.50000384,9.87001242 C2.50000384,9.4300119 2.83000422,9.10001152 3.27000474,9.10001152 L5.03000678,9.10001152 C5.4700073,9.10001152 5.80000768,9.4300119 5.80000768,9.87001242 L5.80000768,11.6300145 C5.80000768,12.070015 5.4700073,12.4000154 5.03000678,12.4000154 L5.03000678,12.4000154 Z M3.60000512,11.3000141 L4.7000064,11.3000141 L4.7000064,10.2000128 L3.60000512,10.2000128 L3.60000512,11.3000141 Z" id="形状"></path>
            </g>
        </g>
    </g>
</svg>