<?xml version="1.0" encoding="UTF-8"?>
<svg width="16px" height="16px" viewBox="0 0 16 16" version="1.1" xmlns="http://www.w3.org/2000/svg" xmlns:xlink="http://www.w3.org/1999/xlink">
    <title>发货管理</title>
    <g id="创客页面优化3" stroke="none" stroke-width="1" fill="none" fill-rule="evenodd">
        <g id="编组" fill="#FFFFFF" fill-rule="nonzero">
            <g id="发货管理">
                <path d="M5.91400688,7.43200865 L0.796000926,7.43200865 L0.796000901,7.43200865 C0.534603722,7.43034494 0.321200348,7.64061514 0.319000327,7.90200919 L0.319000327,7.9100092 L0.319000327,7.91000617 C0.320635845,8.17276585 0.533239639,8.38537078 0.795997757,8.38700985 L5.91400371,8.38700985 L5.91400369,8.38700985 C6.17578212,8.38867199 6.38934174,8.17780648 6.39103141,7.91602805 C6.39103141,7.9140217 6.39103141,7.91201528 6.39103141,7.91000893 L6.39103141,7.9100094 C6.39377538,7.64879347 6.18426493,7.43478853 5.92304744,7.43201821 C5.92003295,7.4319916 5.91701823,7.4319916 5.91400368,7.43200874 L5.91400688,7.43200865 Z M3.6940043,9.49701105 L0.796000926,9.49701105 L0.796000901,9.49701105 C0.534603722,9.49534735 0.321200348,9.70561754 0.319000346,9.9670116 L0.319000346,9.97401161 C0.319000346,10.2410119 0.541000604,10.4520122 0.796000901,10.4520122 L3.69400427,10.4520122 L3.69400425,10.4520122 C3.95578268,10.4536784 4.16934543,10.2428166 4.17101262,9.98103818 C4.17102753,9.978696 4.17102507,9.97635375 4.17100526,9.97401161 L4.17100527,9.97401093 C4.1765882,9.71615438 3.97208004,9.5025932 3.71422349,9.49701038 C3.70748466,9.49686447 3.70074345,9.49686448 3.69400456,9.49701041 L3.6940043,9.49701105 Z M12.5300146,9.97401161 C12.5300146,9.94101157 12.5300146,9.90801153 12.5200146,9.87401149 C12.5200146,9.86401148 12.5080146,9.84101145 12.5080146,9.83001144 C12.5080146,9.81901143 12.4980145,9.7970114 12.4980145,9.78501139 C12.4860145,9.76301136 12.4750145,9.75201135 12.4750145,9.73001132 C12.4640145,9.71901131 12.4640145,9.7080113 12.4640145,9.69701128 C12.4420145,9.67401126 12.4310145,9.64101122 12.3970144,9.61901119 L10.7320125,7.97600928 L10.7320125,7.97600927 C10.5471873,7.78906062 10.2458057,7.78733874 10.058857,7.97216396 C10.0575679,7.9734384 10.0562861,7.97472019 10.0550117,7.97600929 L10.0550117,7.97600931 C9.868063,8.16083453 9.86634112,8.46221613 10.0511664,8.64916478 C10.0524408,8.65045387 10.0537226,8.65173568 10.0550117,8.65301011 L10.8880127,9.48601108 L8.04600936,9.48601108 L8.04600934,9.48601108 C7.7842356,9.48379271 7.57022754,9.69420351 7.5680085,9.95597726 C7.5680085,9.95598851 7.5680085,9.95599976 7.5680085,9.95601101 L7.5680085,9.96301102 C7.5680085,10.2290113 7.79000876,10.4400116 8.04600906,10.4400116 L10.8880124,10.4400116 L10.0550114,11.2730125 L10.0550114,11.2730126 C9.86806272,11.4578378 9.86634084,11.7592194 10.0511661,11.946168 C10.0524405,11.9474571 10.0537223,11.9487389 10.0550114,11.9500134 C10.2440116,12.1400136 10.555012,12.1400136 10.7320122,11.9500134 L12.3860141,10.2960114 L12.3860141,10.2960114 C12.4109515,10.272732 12.4334051,10.246927 12.4530142,10.2190114 C12.4640142,10.2070113 12.4640142,10.1960113 12.4750142,10.1850113 C12.4860142,10.1630113 12.4970143,10.1520113 12.4970143,10.1300113 C12.5080143,10.1190112 12.5080143,10.0960112 12.5080143,10.0850112 C12.5080143,10.0750112 12.5190143,10.0520112 12.5190143,10.0410111 C12.5300146,10.0410111 12.5300146,10.0080111 12.5300146,9.97401107 L12.5300146,9.97401161 Z M2.23000259,11.5510035 L0.785000913,11.5510035 L0.78500091,11.5510035 C0.52224123,11.5526506 0.309637857,11.7652543 0.307983036,12.028014 L0.307983036,12.0280149 C0.305786392,12.2897886 0.51620059,12.5037935 0.777975895,12.5060076 C0.780318038,12.5060248 0.782660291,12.5060248 0.785002465,12.506015 L2.23000258,12.506015 L2.23000256,12.506015 C2.49178099,12.5076812 2.70534374,12.2968194 2.70702053,12.035041 C2.70702053,12.0326988 2.70702053,12.0303565 2.70702053,12.0280144 L2.70702053,12.0280136 C2.70866528,11.7662352 2.49779865,11.5526756 2.23602178,11.5510035 C2.23401543,11.5510035 2.23200901,11.5510035 2.23000266,11.5510035 L2.23000259,11.5510035 Z M15.2400177,3.89000453 L13.9170162,1.35000157 C13.5960158,0.727000264 12.7860149,0.227000264 12.0750141,0.227000264 L3.97200462,0.227000264 C3.27200381,0.227000264 2.46200286,0.716000833 2.12900248,1.33700156 L0.80800094,3.82400445 C0.519000604,4.35700507 0.297990622,5.25600612 0.297990622,5.86700683 L0.297990622,6.25500728 L0.297990622,6.25500722 C0.296341111,6.51678565 0.507208403,6.73034371 0.768986833,6.73200309 C0.770658069,6.73201368 0.772329352,6.73201543 0.77400062,6.73200835 L0.774000639,6.73200835 C1.03577438,6.73422279 1.24977932,6.52380811 1.25199338,6.26203436 C1.2520132,6.25969222 1.25201565,6.25734997 1.25200074,6.25500779 L1.25200074,5.86700734 C1.25200074,5.8330073 1.26200075,5.77700724 1.26200075,5.73300719 L14.7510164,5.73300719 C14.7610165,5.80000726 14.7610165,5.86700734 14.7610165,5.9220074 L14.7610165,14.2140171 L14.7610165,14.2140193 C14.7632267,14.4757931 14.5528084,14.6897949 14.2910347,14.6920042 C14.2890277,14.6920212 14.2870206,14.6920254 14.2850135,14.6920168 L1.73999887,14.6920168 L1.73999885,14.6920168 C1.47685167,14.6903744 1.26408892,14.477165 1.2629983,14.2140163 L1.2629983,13.6260156 L1.26299829,13.6260163 C1.2646649,13.3642379 1.05380274,13.1506736 0.792024308,13.1490079 C0.789682133,13.148993 0.787339881,13.1489955 0.784997737,13.1490153 L0.784997722,13.1490153 C0.523219293,13.1473532 0.309659669,13.3582187 0.307997167,13.6199971 C0.307984428,13.6220034 0.307984428,13.6240099 0.307997167,13.6260162 L0.307997167,14.2260169 L0.307997126,14.226037 C0.306349655,15.021327 0.949722872,15.6673715 1.74501286,15.6690184 C1.74501494,15.6690184 1.74501703,15.6690184 1.74501911,15.6690184 L14.2960337,15.6690184 C15.0950346,15.6690184 15.7390354,15.0140176 15.7390354,14.2260167 L15.7390354,5.93300706 C15.7390354,5.32300635 15.5280351,4.42300531 15.2390348,3.89100469 L15.2400177,3.89000453 Z M1.47400172,4.76800555 C1.52900178,4.57900533 1.59600186,4.40200512 1.66200193,4.27900498 L2.98300347,1.79300209 C3.15000367,1.48300173 3.61600421,1.19300139 3.97100462,1.19300139 L12.0860141,1.19300139 C12.4420145,1.19300139 12.908015,1.48300173 13.0740152,1.79300209 L14.3950168,4.33500504 C14.4620168,4.45700519 14.5180169,4.61300537 14.573017,4.77900556 L1.47300171,4.77900556 L1.47300171,4.76800555 L1.47400172,4.76800555 Z" id="形状"></path>
            </g>
        </g>
    </g>
</svg>