<?xml version="1.0" encoding="UTF-8"?>
<svg width="14px" height="16px" viewBox="0 0 14 16" version="1.1" xmlns="http://www.w3.org/2000/svg" xmlns:xlink="http://www.w3.org/1999/xlink">
    <title>复核配置</title>
    <g id="创客页面优化3" stroke="none" stroke-width="1" fill="none" fill-rule="evenodd">
        <g id="编组" transform="translate(-1.000000, 0.000000)" fill="#FFFFFF" fill-rule="nonzero">
            <g id="形状">
                <path d="M7.1818729,6.32586701 L7.18187293,6.32586702 C6.17394675,5.87402431 5.72315248,4.69064637 6.17499676,3.68272332 C6.62683947,2.67479715 7.81021741,2.22400287 8.81814046,2.67584715 C9.82606663,3.12768986 10.2768609,4.3110678 9.82501663,5.31899085 C9.62428046,5.76677418 9.26592379,6.12513085 8.81814046,6.32586702 L9.93334175,8.00000959 L10.9994758,8.00000959 C11.5520093,8.00000959 11.999477,8.44801012 11.999477,9.00001076 L11.999477,10.0000119 C11.999477,10.5525454 11.5514764,11.0000131 10.9994758,11.0000131 L4.99999887,11.0000131 L4.99999887,11.0000131 C4.44771501,11.0000131 3.99999887,10.5522969 3.99999887,10.0000119 C3.99999887,10.0000119 3.99999887,10.0000119 3.99999887,10.0000119 L3.99999887,9.00001076 C3.99999887,8.4474773 4.44799939,8.00000959 4.99999887,8.00000959 L6.06613409,8.00000959 L7.1818682,6.32586702 L7.1818729,6.32586701 Z M7.268273,8.00000958 L8.73227471,8.00000958 L8.00000667,6.90134112 L7.268273,8.00000958 L7.268273,8.00000958 Z M3.99947232,0 L11.9994816,0 L11.9994815,0 C13.6563428,0 14.999485,1.34314715 14.999485,3 L14.999485,13.0000154 L14.999485,13.0000156 C14.999485,14.6566581 13.6566631,15.9997222 12.0000128,16.0000191 L4,16.0000191 L4,16.0000191 C2.34314219,16.0000191 1,14.6568722 1,13.0000156 L1,3 L1,3 C1,1.34314219 2.34314844,0 4,0 L3.99947232,0 Z M3.99946991,1.00000144 L3.99946991,1.00000144 C2.8949022,1.00000144 1.99946991,1.89543373 1.99946991,3.00000144 C1.99946991,3.00000144 1.99946991,3.00000144 1.99946991,3.00000144 L1.99946991,13.0000154 L1.99946991,13.0000157 C1.99946991,14.1045857 2.8949022,15.000018 3.99946991,15.000018 L11.9994815,15.000018 L11.9994815,15.000018 C13.1040515,15.000018 13.9994838,14.1045873 13.9994838,13.0000157 L13.9994838,3.00000144 L13.9994838,3.00000144 C13.9994838,1.89543403 13.1040515,1.00000144 11.9994815,1.00000144 L3.99946991,1.00000144 L3.99946991,1.00000144 Z M7.99947573,5.50026997 L7.99947573,5.50026997 C8.55176195,5.50026997 8.99947573,5.05255615 8.99947573,4.50026997 C8.99947573,3.94798612 8.55176195,3.50026997 7.99947573,3.50026997 L7.99947573,3.50026997 C7.44719187,3.50026997 6.99947573,3.94798612 6.99947573,4.50026997 C6.99947573,5.05255615 7.44719187,5.50026997 7.99947573,5.50026997 L7.99947573,5.50026997 Z M5.00000474,9.00001075 L5.00000474,10.0000107 L11.0000047,10.0000107 L11.0000047,9.00001075 L5.00000474,9.00001075 Z M4.49973697,12.5002804 L11.5002676,12.5002804 L11.5002676,12.5002804 C11.7764189,12.5002804 12.0002676,12.7241385 12.0002676,13.0002804 C12.0002676,13.2764235 11.7764189,13.5002804 11.5002676,13.5002804 L4.50026759,13.5002804 L4.50026759,13.5002804 C4.22412567,13.5002804 4.00026759,13.2764235 4.00026759,13.0002804 C4.00026759,12.7241385 4.22412567,12.5002804 4.50026759,12.5002804 L4.49973697,12.5002804 Z"></path>
            </g>
        </g>
    </g>
</svg>