<?xml version="1.0" encoding="UTF-8"?>
<svg width="16px" height="16px" viewBox="0 0 16 16" version="1.1" xmlns="http://www.w3.org/2000/svg" xmlns:xlink="http://www.w3.org/1999/xlink">
    <title>首 页</title>
    <g id="创客页面优化3" stroke="none" stroke-width="1" fill="none" fill-rule="evenodd">
        <g id="编组" fill="#FFFFFF" fill-rule="nonzero">
            <g id="首-页">
                <path d="M12.1565771,15.5987331 L9.13570879,15.5987331 C8.81900424,15.5987331 8.57538676,15.3551141 8.57538676,15.0384111 L8.57538676,10.2147618 L6.84569443,10.2147618 L6.84569443,15.0384111 C6.84569443,15.3551156 6.60207543,15.5987331 6.2853724,15.5987331 L3.31321965,15.5987331 C2.38746988,15.5987331 1.63225813,14.8435152 1.63225813,13.9177716 L1.63225813,8.99667594 L1.31555358,8.99667594 C0.584698097,8.99667594 1.3709824e-05,8.41199155 1.3709824e-05,7.68113607 C1.3709824e-05,7.34007068 0.121823059,7.02336613 0.365441452,6.77974713 L6.04175035,0.762368276 C6.96750012,-0.21210621 8.50229816,-0.260829402 9.50113501,0.664920828 C9.52549691,0.713644476 9.54985865,0.738006376 9.59858245,0.762368276 L15.2748914,6.77974713 C15.7864902,7.29134597 15.7621278,8.11964936 15.2505295,8.63124363 C15.0069104,8.87486263 14.6658451,8.99667137 14.3247782,8.99667137 L13.8375417,8.99667137 L13.8375417,13.917767 C13.8375417,14.8435168 13.0823238,15.5987331 12.1565802,15.5987331 L12.1565771,15.5987331 Z M9.72038708,14.4780875 L12.1565771,14.4780875 C12.4732817,14.4780875 12.7412615,14.2101077 12.7412615,13.8934031 L12.7412615,8.43634477 C12.7412615,8.11964022 12.9848805,7.87602274 13.3015835,7.87602274 L14.3491436,7.87602274 C14.4222291,7.87602274 14.4953147,7.82729909 14.519677,7.75421339 C14.5440389,7.68112784 14.5440389,7.60804229 14.4709534,7.53495674 L8.77028668,1.54193568 C8.25868784,1.00597448 7.43038445,0.981613649 6.89441716,1.49321203 C6.87005526,1.49321203 6.84569351,1.51757393 6.84569351,1.54193568 L1.16938462,7.53495674 C1.09629907,7.60804229 1.09629907,7.72985103 1.16938462,7.80293658 C1.21810827,7.85166023 1.26683207,7.85166023 1.31555571,7.85166023 L2.21694465,7.85166023 C2.5336492,7.85166023 2.77726668,8.09527923 2.77726668,8.41198226 L2.77726668,13.8933984 C2.77726668,14.2101029 3.04524652,14.4780875 3.36195107,14.4780875 L5.77376808,14.4780875 L5.77376808,10.214754 C5.77376808,9.58134646 6.28536691,9.09410846 6.89441366,9.09410846 L8.62410599,9.09410846 C9.25751357,9.09410846 9.74475157,9.6057073 9.74475157,10.214754 L9.72038967,14.4780875 L9.72038708,14.4780875 Z" id="形状"></path>
            </g>
        </g>
    </g>
</svg>