<?xml version="1.0" encoding="UTF-8"?>
<svg width="16px" height="16px" viewBox="0 0 16 16" version="1.1" xmlns="http://www.w3.org/2000/svg" xmlns:xlink="http://www.w3.org/1999/xlink">
    <title>借调管理</title>
    <g id="创客页面优化3" stroke="none" stroke-width="1" fill="none" fill-rule="evenodd">
        <g id="编组" fill="#FFFFFF" fill-rule="nonzero">
            <g id="借调管理">
                <path d="M6.45600751,3.90200454 L6.45600756,3.90200458 C6.2411995,3.72847625 6.2077354,3.41366651 6.38126326,3.19885845 C6.54408845,2.99729884 6.83391691,2.95352379 7.04900778,3.09800349 L13.0000147,7.50000861 L3.50000305,7.50000861 L3.50000305,7.50000861 C3.22386112,7.50000861 3.00000305,7.27615054 3.00000305,7.00000803 C3.00000305,6.72386552 3.22386112,6.50000745 3.50000305,6.50000745 L9.96801116,6.50000745 L6.45600707,3.90200443 L6.45600751,3.90200454 Z M9.54401111,12.0980141 L9.54401109,12.0980141 C9.75881915,12.2715424 9.79228325,12.5863521 9.6187554,12.8011602 C9.45593021,13.0027198 9.16610174,13.0464949 8.95101087,12.902015 L3.00000394,8.50000988 L12.500015,8.50000988 L12.500015,8.50000988 C12.7761575,8.50000988 13.0000156,8.72386795 13.0000156,9.00000988 C13.0000156,9.27615297 12.7761575,9.50000988 12.500015,9.50000988 L6.03300745,9.50000988 L9.54501154,12.0980141 L9.54401111,12.0980141 Z M4.00000103,1.00000116 L4.00000103,1.00000116 C2.34314322,1.00000116 1.00000103,2.34314804 1.00000103,4.00000116 C1.00000103,4.00000116 1.00000103,4.00000116 1.00000103,4.00000116 L1.00000103,12.000014 L1.00000103,12.0000144 C1.00000103,13.6568757 2.34314947,15.0000179 4.00000103,15.0000179 L12.0000138,15.0000179 L12.0000137,15.0000179 C13.656875,15.0000179 15.0000172,13.656871 15.0000172,12.0000144 L15.0000172,4.00000116 L15.0000172,4.00000116 C15.0000172,2.3431438 13.6568703,1.00000116 12.0000137,1.00000116 L4.00000103,1.00000116 L4.00000103,1.00000116 Z M3.99999965,-1.77635891e-15 L12.000014,-1.77635891e-15 L12.0000138,-1.77635891e-15 C14.209157,-1.77635891e-15 16.0000184,1.79086146 16.0000184,4 L16.0000184,12.000014 L16.0000184,12.000014 C16.0000184,14.2091572 14.209157,16.0000186 12.0000138,16.0000186 L3.99999965,16.0000186 L3.99999965,16.0000186 C1.79086111,16.0000186 -3.49691033e-07,14.2091572 -3.49691033e-07,12.000014 C-3.49691033e-07,12.000014 -3.49691033e-07,12.000014 -3.49691033e-07,12.000014 L-3.49691033e-07,4 L-3.49691033e-07,4 C-3.49691033e-07,1.79086206 1.79086111,-1.77635891e-15 3.99999965,-1.77635891e-15 L3.99999965,-1.77635891e-15 Z" id="形状"></path>
            </g>
        </g>
    </g>
</svg>