<?xml version="1.0" encoding="UTF-8"?>
<svg width="16px" height="14px" viewBox="0 0 16 14" version="1.1" xmlns="http://www.w3.org/2000/svg" xmlns:xlink="http://www.w3.org/1999/xlink">
    <title>客户信息</title>
    <g id="创客页面优化3" stroke="none" stroke-width="1" fill="none" fill-rule="evenodd">
        <g id="编组" transform="translate(0.000000, -1.000000)" fill="#FFFFFF" fill-rule="nonzero">
            <g id="形状">
                <path d="M15.9976255,11.5160548 C15.9183486,9.93685913 15.2312826,8.71573693 13.998087,7.81596267 C13.8571504,7.7149676 13.7074053,7.61397253 13.6017028,7.54052157 C13.7778736,7.33853143 13.9364273,7.17326677 14.0773639,6.98963937 C14.7380044,6.09904649 14.9141751,5.1166399 14.4825567,4.0791451 C14.0685554,3.09673851 13.3198295,2.55503769 12.298039,2.42649851 C11.9897401,2.38977303 11.646207,2.38977303 11.6021643,2.83047878 C11.5669302,3.22527769 11.8664205,3.29872865 12.1747194,3.3446355 C13.1612758,3.49153742 13.8042992,4.25359113 13.7954906,5.25436045 C13.7866821,6.19086019 13.1524673,6.8611002 12.1659109,7.05390896 C11.9545059,7.09063444 11.6726327,7.31098732 11.62859,7.49461472 C11.5493131,7.84350678 11.8664205,7.94450185 12.1482938,8.01795281 C12.2275706,8.03631555 12.3068475,8.04549692 12.3861243,8.06385966 C13.8131077,8.39438898 15.0022605,9.80831995 15.0463032,11.249795 C14.7908556,11.249795 14.5177909,11.1855254 14.2887688,11.2681578 C14.1037895,11.3324274 13.9628529,11.5619616 13.8042992,11.7180449 C13.9628529,11.8649468 14.1125981,12.1036624 14.2975774,12.1403879 C14.6587275,12.2046575 15.0286862,12.1495693 15.3986448,12.167932 C15.8302632,12.1862948 16.0240511,11.993486 15.9976255,11.5160548 Z M5.72686858,2.36222892 C7.1186178,1.09519986 9.40883804,1.23292041 10.6684592,2.72030234 C11.8488034,4.11587058 12.1130596,6.52138951 10.0166273,8.30257528 C10.4306286,8.55047227 10.8534385,8.76164378 11.2410142,9.04626625 C12.8353599,10.2123002 13.7250223,11.7914959 13.8042992,13.8481227 C13.8219163,14.2888285 13.654554,14.5 13.2229356,14.5 L13.2229356,14.5 L2.78481644,14.5 C2.34438947,14.5 2.18583576,14.2704658 2.21226138,13.8389414 C2.35319801,11.4517852 3.47188251,9.72568762 5.48903802,8.61474186 C5.62997465,8.53210953 5.77971982,8.46783994 5.92065645,8.39438898 C5.94708207,8.38520761 5.95589061,8.34848213 5.9999333,8.28421254 C4.96052566,7.44870787 4.40558768,6.34694348 4.46724746,4.96973798 C4.52009869,3.92306181 4.96052566,3.06001303 5.72686858,2.36222892 Z M7.93701216,8.92162061 L7.70878994,8.92690844 C5.37452701,9.02790351 3.26047756,11.1579813 3.16358363,13.5267748 L3.16358363,13.5267748 L12.8794026,13.5267748 C12.5446781,10.7172756 10.3865859,8.80755063 7.70878994,8.92690844 Z M3.78898992,2.42649851 C4.0972888,2.41731714 4.40558768,2.42649851 4.4320133,2.83966015 C4.46724746,3.23445906 4.1853742,3.30791002 3.86826678,3.35381687 C2.88171037,3.49153742 2.26511261,4.13423332 2.20345284,5.05237031 C2.14179306,5.96132594 2.66149688,6.74174239 3.48949959,6.980458 C3.65686183,7.02636485 3.85945824,6.98963937 4.00039487,7.0722717 C4.16775712,7.17326677 4.39677914,7.35689417 4.40558768,7.52215883 C4.41439622,7.65987938 4.1853742,7.91695774 4.01801195,7.96286459 C3.07549824,8.20158021 2.1946443,8.55965364 1.63970632,9.43188378 C1.30498182,9.95522187 1.08476834,10.5611923 0.767660921,11.2406137 C1.19927935,11.2406137 1.45472699,11.2314323 1.71017463,11.2406137 C2.00085643,11.2589764 2.24749553,11.4334224 2.18583576,11.745589 C2.1506016,11.9108537 1.88634542,12.1220252 1.70136609,12.1495693 C1.31379036,12.2138389 0.899789012,12.167932 0.50340474,12.167932 C0.142254626,12.167932 -0.0162990826,11.9843046 0.00131799615,11.6078685 C0.0629777717,9.9460405 0.767660921,8.66983008 2.08894183,7.76087445 C2.21226138,7.67824212 2.32677239,7.60479116 2.47651756,7.50379609 C1.76302587,6.95291389 1.40187576,6.22758567 1.34021598,5.35535552 C1.23451351,3.88633633 2.40604924,2.49994947 3.78898992,2.42649851 Z M8.04351444,2.4172657 C6.52844567,2.40813577 5.34810139,3.62925797 5.36571847,5.2084536 C5.37452701,6.7692865 6.52844567,7.97204596 8.02589736,7.97204596 C9.50573197,7.97204596 10.6948848,6.73256102 10.6948848,5.2084536 C10.6948848,3.67516482 9.50573197,2.42649851 8.04351444,2.4172657 Z"></path>
            </g>
        </g>
    </g>
</svg>