<?xml version="1.0" encoding="UTF-8"?>
<svg width="16px" height="16px" viewBox="0 0 16 16" version="1.1" xmlns="http://www.w3.org/2000/svg" xmlns:xlink="http://www.w3.org/1999/xlink">
    <title>库存管理</title>
    <g id="创客页面优化3" stroke="none" stroke-width="1" fill="none" fill-rule="evenodd">
        <g id="编组" fill="#FFFFFF" fill-rule="nonzero">
            <g id="库存管理">
                <path d="M15.8564247,3.27817187 L15.7966679,3.27817187 L15.7966679,3.27817189 C15.7739773,3.24580313 15.7472082,3.21635717 15.7169925,3.19052883 L15.6472763,3.19052883 L8.13784573,0.356726923 L8.13784572,0.356726918 C8.02544668,0.315664176 7.9016642,0.315664328 7.78926407,0.356726928 L0.329630385,3.11261208 L0.25991421,3.11261208 L0.259914249,3.11261204 C0.208175439,3.15858614 0.167379142,3.21509657 0.140400829,3.27816071 L0.0806440407,3.27816071 L0.0806440457,3.2781607 C0.0223999154,3.36452272 -0.00556292962,3.46705384 0.00096832798,3.57030424 L0.00096832798,12.6559787 L0.00096831228,12.6559809 C-0.000488603478,12.8585064 0.126424396,13.0407659 0.319673371,13.1136716 L7.78926019,15.9377262 L7.78926017,15.9377262 C7.90462812,15.9812542 8.03243233,15.9812542 8.14780122,15.9377263 L15.617388,13.1428827 L15.617388,13.1428827 C15.8106367,13.0699765 15.9375477,12.8877161 15.9360899,12.6851905 L15.9360899,3.57028965 L15.9360899,3.57028951 C15.9426213,3.46703789 15.9146584,3.36450677 15.8564142,3.27814597 L15.8564247,3.27817187 Z M7.96854052,1.33054321 L14.0139382,3.57031388 L7.96854052,5.77112616 L1.92314286,3.57031388 L7.96854052,1.33054321 Z M0.996923035,4.25197856 L7.47057119,6.62808827 L7.47057119,14.739956 L0.996923035,12.315156 L0.996923035,4.25197856 Z M14.940158,4.25197856 L14.940158,12.305424 L8.46650985,14.739956 L8.46650985,6.62808827 L14.940158,4.25197856 Z M2.76468133,6.91535513 C2.86093926,6.66257911 3.14854428,6.53396177 3.40706646,6.62808063 L3.40706646,6.62808063 L5.23959985,7.29027376 L5.23959987,7.30001184 C5.49812079,7.3941307 5.62966126,7.67534449 5.53340334,7.92812173 C5.43714541,8.18089775 5.14954039,8.30951509 4.89101821,8.21539623 L4.89101821,8.21539623 L3.0584848,7.54346502 C2.79996387,7.44934617 2.66842341,7.16813237 2.76468133,6.91535513 Z" id="形状"></path>
            </g>
        </g>
    </g>
</svg>