<?xml version="1.0" encoding="UTF-8"?>
<svg width="16px" height="16px" viewBox="0 0 16 16" version="1.1" xmlns="http://www.w3.org/2000/svg" xmlns:xlink="http://www.w3.org/1999/xlink">
    <title>库存盘点</title>
    <g id="创客页面优化3" stroke="none" stroke-width="1" fill="none" fill-rule="evenodd">
        <g id="编组" fill="#FFFFFF" fill-rule="nonzero">
            <g id="库存盘点">
                <path d="M14.5252143,3.88509419 L0.793876851,3.88509419 C0.635566529,3.88509419 0.493920451,3.80177297 0.427263473,3.66012689 C0.352274373,3.52681294 0.368938618,3.36017049 0.45225984,3.22685654 L2.53529039,0.218960418 C2.61027949,0.102310707 2.74359345,0.0356537295 2.8769074,0.0356537295 L12.2838734,0.0356537295 C12.4171873,0.0356537295 12.5421692,0.093978585 12.6171583,0.202296174 L14.8584991,3.21852441 C14.9501525,3.34350625 14.9668167,3.51014869 14.9001598,3.65179477 C14.8251707,3.79344085 14.6835246,3.88509419 14.5252143,3.88509419 Z M1.58542846,3.05188197 L13.7003342,3.05188197 L12.0755703,0.86886595 L3.09354258,0.86886595 L1.58542846,3.05188197 Z M14.5252143,3.05188197 C14.7585137,3.05188197 14.9418204,3.23518866 14.9418204,3.46848808 L14.9418204,7.63454918 C14.9418204,7.86784861 14.7585137,8.0511553 14.5252143,8.0511553 C14.2919148,8.0511553 14.1086081,7.86784861 14.1086081,7.63454918 L14.1086081,3.88509419 L1.21048296,3.88509419 L1.21048296,15.1167949 L7.64288131,15.1167949 C7.87618073,15.1167949 8.05948742,15.3001016 8.05948742,15.533401 C8.05948742,15.7667005 7.87618073,15.9500071 7.64288131,15.9500071 L0.793876851,15.9500071 C0.560577429,15.9500071 0.37727074,15.7667005 0.37727074,15.533401 L0.37727074,3.46848808 C0.37727074,3.23518866 0.560577429,3.05188197 0.793876851,3.05188197 L14.5252143,3.05188197 Z M11.6756285,8.55108263 C13.2670638,8.55108263 14.5585427,9.84256157 14.5585427,11.4339969 C14.5585427,12.0802378 14.3455827,12.677017 13.986055,13.157942 L15.733372,15.1251271 C15.8833502,15.3001016 15.8666859,15.5583974 15.7000435,15.7167077 C15.6167223,15.7916968 15.5167368,15.8250253 15.4167513,15.8250253 C15.3001016,15.8250253 15.1834519,15.7750326 15.1084628,15.6833792 L13.3915697,13.7503854 C12.9120345,14.1063042 12.3182891,14.3169112 11.6756285,14.3169112 C10.0841931,14.3169112 8.79271417,13.0254323 8.79271417,11.4339969 C8.79271417,9.84256157 10.0841931,8.55108263 11.6756285,8.55108263 Z M11.6756285,9.38429485 C10.5424598,9.38429485 9.62592639,10.3008283 9.62592639,11.4339969 C9.62592639,12.5671655 10.5424598,13.483699 11.6756285,13.483699 C12.229949,13.483699 12.73243,13.2643775 13.1011429,12.9076628 C13.1151689,12.8869457 13.1318621,12.8680821 13.1504141,12.8504577 L13.1690391,12.8388168 C13.514085,12.4721043 13.7253305,11.978016 13.7253305,11.4339969 C13.7253305,10.3008283 12.8087971,9.38429485 11.6756285,9.38429485 Z M10.284164,6.46805208 C10.5174635,6.46805208 10.7007702,6.65135876 10.7007702,6.88465819 C10.7007702,7.11795761 10.5174635,7.3012643 10.284164,7.3012643 L5.04325918,7.3012643 C4.80995976,7.3012643 4.62665307,7.11795761 4.62665307,6.88465819 C4.62665307,6.65135876 4.80995976,6.46805208 5.04325918,6.46805208 L10.284164,6.46805208 Z" id="形状"></path>
            </g>
        </g>
    </g>
</svg>