<?xml version="1.0" encoding="UTF-8"?>
<svg width="16px" height="16px" viewBox="0 0 16 16" version="1.1" xmlns="http://www.w3.org/2000/svg" xmlns:xlink="http://www.w3.org/1999/xlink">
    <title>移位</title>
    <g id="创客页面优化3" stroke="none" stroke-width="1" fill="none" fill-rule="evenodd">
        <g id="编组" fill="#FFFFFF" fill-rule="nonzero">
            <g id="移位">
                <path d="M15.9502199,5.05579245 L15.9502199,4.51019182 L13.7049405,0.618077914 C13.5088259,0.268591793 13.1593398,0.0724772788 12.7570536,0.0724772788 C12.6740821,0.0322486606 12.5609391,0.0322486606 12.4779676,0.0322486606 L3.44916692,0.0322486606 C3.3661954,0.0322486606 3.29579532,0.0322486606 3.21282379,0.0724772788 C2.82059476,0.0724772788 2.46105149,0.308820411 2.26493697,0.618077914 L0.0297343719,4.5001494 L0.0297343719,15.1179854 C0.0297343719,15.5906717 0.4219634,15.9829007 0.894649664,15.9829007 L15.0853046,15.9829007 C15.5579908,15.9829007 15.9099912,15.6334146 15.9502199,15.158214 L15.9502199,5.05580718 L15.9502199,5.05579245 Z M12.7696251,0.924806396 L14.5824272,4.38447247 C14.6226558,4.42470109 14.6226558,4.49761546 14.6653987,4.53784408 L8.51545853,4.53784408 L8.51545853,0.924806396 L12.7696398,0.924806396 L12.7696251,0.924806396 Z M3.40640437,0.924821128 L7.45440908,0.924821128 L7.45440908,4.54036328 L1.26675456,4.54036328 L3.40641419,0.924821128 L3.40640437,0.924821128 Z M14.5396696,14.7659801 L1.19383037,14.8690659 L1.19383037,5.48826483 L14.8816275,5.48826483 L14.8816275,14.8590235 L14.5396843,14.7659948 L14.5396696,14.7659801 Z M11.5174897,10.245294 C11.5174897,10.2377512 11.5149754,10.2302083 11.5149754,10.2226654 C11.5124611,10.2126083 11.5124611,10.2050654 11.5099468,10.1950083 C11.5074325,10.1874654 11.5049183,10.1774082 11.5049183,10.1698654 C11.502404,10.1623225 11.502404,10.1547796 11.4998897,10.1472368 C11.4973754,10.1396939 11.4948611,10.1346653 11.4923468,10.1271225 C11.4672039,10.0567224 11.4294896,9.98883659 11.371661,9.93352224 C11.3616038,9.92346508 11.3515467,9.91592222 11.3414895,9.90586506 L9.86057349,8.42746334 C9.66445898,8.23134883 9.34514432,8.23134883 9.1490298,8.42746334 C8.95291529,8.62357785 8.95291529,8.94289251 9.1490298,9.13900703 L9.80274485,9.79272207 L5.08342016,9.79272207 C4.80684841,9.79272207 4.58056244,10.019008 4.58056244,10.2955798 C4.58056244,10.5721516 4.80684841,10.7984375 5.08342016,10.7984375 L9.79771136,10.7984375 L9.14902489,11.4446097 C8.95291038,11.6407242 8.95291038,11.9600389 9.14902489,12.1561534 C9.24708215,12.2542107 9.37531087,12.3044964 9.50353959,12.3044964 C9.63176831,12.3044964 9.75999703,12.2542107 9.85805429,12.1561534 L11.3238846,10.6903231 C11.3263989,10.6878088 11.3314274,10.6852945 11.3339417,10.6827803 C11.3465132,10.6727231 11.3590846,10.6626659 11.3691418,10.6500945 L11.3716561,10.6500945 C11.3842275,10.6375231 11.3942846,10.6274659 11.4043418,10.6148945 C11.4093704,10.6098659 11.414399,10.602323 11.4169132,10.5972944 C11.4219418,10.5897516 11.4269704,10.5822087 11.431999,10.5771801 C11.4370276,10.5696373 11.4420561,10.5620944 11.4445704,10.5545515 C11.449599,10.5470087 11.4521133,10.5419801 11.4571419,10.5344372 C11.4621704,10.5268944 11.4646847,10.5193515 11.467199,10.5118086 C11.4697133,10.5042658 11.4747419,10.4967229 11.4772562,10.48918 L11.484799,10.4665514 L11.4923419,10.4439228 C11.4948562,10.43638 11.4973705,10.4288371 11.4973705,10.4212942 C11.4998848,10.4137514 11.5023991,10.4036942 11.5023991,10.3961513 C11.5049133,10.3860942 11.5049133,10.3785513 11.5074276,10.3684942 C11.5074276,10.3609513 11.5099419,10.3534084 11.5099419,10.3458656 C11.5199991,10.3106655 11.5199991,10.2779798 11.5174848,10.245294 L11.5174897,10.245294 Z" id="形状"></path>
            </g>
        </g>
    </g>
</svg>