<?xml version="1.0" encoding="UTF-8"?>
<svg width="16px" height="16px" viewBox="0 0 16 16" version="1.1" xmlns="http://www.w3.org/2000/svg" xmlns:xlink="http://www.w3.org/1999/xlink">
    <title>PDA操作</title>
    <g id="创客页面优化3" stroke="none" stroke-width="1" fill="none" fill-rule="evenodd">
        <g id="编组" fill="#FFFFFF" fill-rule="nonzero">
            <g id="PDA操作">
                <path d="M2.28572141,0 L13.7143128,0 L13.7143127,0 C14.9766798,0 16.0000341,1.02334963 16.0000341,2.28572141 L16.0000341,13.7143128 L16.0000341,13.7143128 C16.0000341,14.9766799 14.9766845,16.0000342 13.7143127,16.0000342 L2.28572131,16.0000342 L2.28572121,16.0000342 C1.02335412,16.0000342 -1.99823675e-07,14.9766831 -1.99823675e-07,13.7143128 C-1.99823675e-07,13.7143128 -1.99823675e-07,13.7143128 -1.99823675e-07,13.7143128 L-1.99823675e-07,2.28572141 L-1.99823675e-07,2.28572175 C-1.99823675e-07,1.02335466 1.02334943,0 2.28572121,0 L2.28572141,0 Z M1.73636286,1.11 L1.73636285,1.11 C1.39043266,1.11 1.11,1.39043266 1.11,1.73636285 L1.11,14.2636371 L1.11,14.2636371 C1.11,14.6095673 1.39043266,14.89 1.73636285,14.89 L14.2636371,14.89 L14.2636371,14.89 C14.6095673,14.89 14.89,14.6095673 14.89,14.2636371 L14.89,1.73636293 L14.89,1.73636295 C14.89,1.39043275 14.6095673,1.11 14.2636371,1.11 L1.73636288,1.11 L1.73636286,1.11 Z M5.52686581,5.71658478 L10.4731528,5.71658478 L10.4731528,5.71658478 C11.1043364,5.71642636 11.6161401,6.22797287 11.616298,6.85915642 C11.616298,7.10604733 11.5364695,7.34631792 11.388582,7.54401503 L8.91543852,10.8548783 L8.91543851,10.8548783 C8.53757088,11.3604554 7.82139818,11.4639868 7.31582727,11.0861192 C7.2280603,11.0205225 7.15018333,10.9426451 7.08458638,10.8548783 L4.61144288,7.54287442 L4.61144293,7.54287449 C4.23336437,7.03745515 4.33659418,6.3212387 4.84201351,5.94315388 C5.03939812,5.79550058 5.27923121,5.71562237 5.52572993,5.71543799 L5.52686581,5.71658478 Z" id="形状"></path>
            </g>
        </g>
    </g>
</svg>