<?xml version="1.0" encoding="UTF-8"?>
<svg width="16px" height="15px" viewBox="0 0 16 15" version="1.1" xmlns="http://www.w3.org/2000/svg" xmlns:xlink="http://www.w3.org/1999/xlink">
    <title>设备管理</title>
    <g id="创客页面优化3" stroke="none" stroke-width="1" fill="none" fill-rule="evenodd">
        <g id="编组" fill="#FFFFFF" fill-rule="nonzero">
            <g id="设备管理">
                <path d="M15.1140061,0.222085288 L0.886013379,0.222085288 C0.439137859,0.222085288 0.075744579,0.571075785 0.075744579,1.00023978 L0.075744579,14.1754171 C0.075744579,14.6045811 0.439137859,14.9535716 0.886013379,14.9535716 L15.1140061,14.9535716 C15.5608816,14.9535716 15.9242749,14.6045811 15.9242749,14.1754171 L15.9242749,1.00023978 C15.9242749,0.571075785 15.5608816,0.222085288 15.1140061,0.222085288 Z M14.6802259,1.41682753 L14.6802259,13.7588293 L1.31979365,13.7588293 L1.31979365,1.41682753 L14.6802259,1.41682753 Z M4.61161295,8.38563328 L4.61161295,12.1396392 C4.61161295,12.4744814 4.88988709,12.7464425 5.23363749,12.7464425 C5.57738789,12.7464425 5.85566202,12.4744814 5.85566202,12.1396392 L5.85566202,8.38563328 C6.22232911,8.28187935 6.55462117,8.08851975 6.81816314,7.82127477 C7.18810405,7.4471318 7.39271738,6.95980273 7.39271738,6.44889322 C7.39271738,5.94112777 7.18974095,5.45537072 6.82143695,5.07965573 C6.55625807,4.81083872 6.22232911,4.61590709 5.85402511,4.51215316 L5.85402511,3.02815753 C5.85402511,2.69803139 5.57575098,2.43078641 5.23200058,2.43078641 C4.88825018,2.43078641 4.60997605,2.69803139 4.60997605,3.02815753 L4.60997605,4.51215316 C4.24167205,4.61590709 3.90774309,4.81083872 3.64256421,5.07965573 C3.27426021,5.45379869 3.07128378,5.93955574 3.07128378,6.44889322 C3.07128378,6.9582307 3.27589711,7.44555978 3.64583802,7.82127477 C3.91265381,8.08851975 4.24494586,8.28187935 4.61161295,8.38563328 Z M4.31696975,6.44889322 C4.31696975,5.99300473 4.72783333,5.62200582 5.23200058,5.62200582 C5.73616783,5.62200582 6.14703141,5.99300473 6.14703141,6.44889322 C6.14703141,6.90478171 5.73616783,7.27578061 5.23200058,7.27578061 C4.72783333,7.27578061 4.31696975,6.90478171 4.31696975,6.44889322 Z M10.1443575,10.6650757 L10.1443575,12.1474993 C10.1443575,12.4776255 10.4226316,12.7448704 10.766382,12.7448704 C11.1101324,12.7448704 11.3884066,12.4776255 11.3884066,12.1474993 L11.3884066,10.6650757 C11.7567106,10.5613218 12.0906395,10.3663902 12.3558184,10.0975732 C12.7241224,9.72343019 12.9270988,9.23767314 12.9270988,8.72833566 C12.9270988,8.21899818 12.7241224,7.73324113 12.3558184,7.35909817 C12.0906395,7.09028116 11.7567106,6.89534953 11.3900435,6.7915956 L11.3900435,3.03758971 C11.3900435,2.70274747 11.1117693,2.43078641 10.7680189,2.43078641 C10.4242685,2.43078641 10.1459944,2.70274747 10.1459944,3.03758971 L10.1459944,6.7915956 C9.7793273,6.89534953 9.44539834,7.09028116 9.18021946,7.35909817 C8.81191546,7.73324113 8.60893903,8.2205702 8.60893903,8.72833566 C8.60893903,9.23610111 8.81191546,9.72185816 9.18021946,10.0975732 C9.44376143,10.3663902 9.77769039,10.5613218 10.1443575,10.6650757 Z M9.85135119,8.72833566 C9.85135119,8.27244717 10.2622148,7.90144826 10.766382,7.90144826 C11.2705493,7.90144826 11.6814128,8.27244717 11.6814128,8.72833566 C11.6814128,9.18422415 11.2705493,9.55522305 10.766382,9.55522305 C10.2622148,9.55522305 9.85135119,9.18422415 9.85135119,8.72833566 Z" id="形状"></path>
            </g>
        </g>
    </g>
</svg>