<?xml version="1.0" encoding="UTF-8"?>
<svg width="16px" height="16px" viewBox="0 0 16 16" version="1.1" xmlns="http://www.w3.org/2000/svg" xmlns:xlink="http://www.w3.org/1999/xlink">
    <title>站内消息</title>
    <g id="创客页面优化3" stroke="none" stroke-width="1" fill="none" fill-rule="evenodd">
        <g id="编组" fill="#FFFFFF" fill-rule="nonzero">
            <g id="消-息" transform="translate(0.500000, 0.000000)">
                <path d="M13.5263501,7.84400913 L13.5263501,12.2488111 L12.3743363,12.2488111 L12.3743363,7.84400913 C12.3743363,4.90641196 10.1711306,2.54320608 7.5063306,2.54320608 C4.80953059,2.54320608 2.63832494,4.94320888 2.63832494,7.84400913 L2.63832494,12.2488111 L1.4871236,12.2488111 L1.4871236,7.84400913 C1.4871236,4.44080204 3.9543296,1.61200188 7.01353628,1.36079846 L7.01353628,0.608797583 C7.01353628,0.250397166 7.27673659,-3.12500364e-06 7.57273693,-3.12500364e-06 C7.90073731,-3.12500364e-06 8.13193758,0.286397208 8.13193758,0.608797583 L8.13193758,1.36079846 C11.1247379,1.71919888 13.5263501,4.47680208 13.5263501,7.84400913 L13.5263501,7.84400913 Z M14.8423391,12.8936088 C14.8423391,13.2520092 14.5783388,13.5384095 14.2503385,13.5384095 L0.664728893,13.5384095 C0.33592851,13.5384095 0.0727282036,13.2520092 0.0727282036,12.8936088 C0.0727282036,12.5360083 0.33592851,12.248808 0.664728893,12.248808 L14.2495416,12.248808 C14.579142,12.248808 14.8415423,12.5360083 14.8415423,12.8936088 L14.8423391,12.8936088 Z M9.44553599,13.5384095 C9.35193588,14.2224103 8.60553501,14.803211 7.76553403,14.803211 C6.92553305,14.803211 6.20953222,14.2568103 6.08553208,13.5392095 L4.99513081,13.5392095 C5.08873092,14.9048111 6.30233233,16.0000092 7.76472778,16.0000092 C9.22712948,16.0000092 10.4407309,14.905608 10.5343248,13.5384095 L9.44552349,13.5384095 L9.44553599,13.5384095 Z" id="形状"></path>
            </g>
        </g>
    </g>
</svg>