<?xml version="1.0" encoding="UTF-8"?>
<svg width="16px" height="16px" viewBox="0 0 16 16" version="1.1" xmlns="http://www.w3.org/2000/svg" xmlns:xlink="http://www.w3.org/1999/xlink">
    <title>系统</title>
    <g id="创客页面优化3" stroke="none" stroke-width="1" fill="none" fill-rule="evenodd">
        <g id="编组" fill="#FFFFFF" fill-rule="nonzero">
            <g id="系统" transform="translate(0.000000, 0.500000)">
                <path d="M15.1221907,0.180069659 L0.877828846,0.180069659 C0.453870019,0.180069659 0.110119619,0.510195805 0.110119619,0.918923415 L0.110119619,10.6324923 C0.110119619,11.0396478 0.453870019,11.3744901 0.877828846,11.3744901 L5.70834042,11.3744901 L5.70834042,13.6224919 L3.18750415,13.6224919 C2.87158117,13.6224919 2.61458682,13.8693005 2.61458682,14.1727022 C2.61458682,14.4761038 2.87158117,14.7229124 3.18750415,14.7229124 L12.7961463,14.7229124 C13.1120693,14.7229124 13.3690636,14.4761038 13.3690636,14.1727022 C13.3690636,13.8693005 13.1120693,13.6224919 12.7961463,13.6224919 L10.2916791,13.6224919 L10.2916791,11.372918 L15.1221907,11.372918 C15.5461495,11.372918 15.8898999,11.0380758 15.8898999,10.6309202 L15.8898999,0.918923415 C15.8898999,0.510195805 15.5461495,0.180069659 15.1221907,0.180069659 Z M14.7440652,10.2724976 L1.25595429,10.2724976 L1.25595429,1.28049015 L14.7440652,1.28049015 L14.7440652,10.2724976 Z M10.6517986,8.92055239 C10.9677215,8.92055239 11.2247159,8.6737438 11.2247159,8.37034215 L11.2247159,3.66997463 C11.2247159,3.36657299 10.9677215,3.11976439 10.6517986,3.11976439 C10.3358756,3.11976439 10.0788812,3.36657299 10.0788812,3.66997463 L10.0788812,8.37034215 C10.0788812,8.6737438 10.3358756,8.92055239 10.6517986,8.92055239 Z M8.03274789,8.92055239 C8.34867087,8.92055239 8.60566522,8.6737438 8.60566522,8.37034215 L8.60566522,4.92759805 C8.60566522,4.6241964 8.34867087,4.3773878 8.03274789,4.3773878 C7.7168249,4.3773878 7.45983055,4.6241964 7.45983055,4.92759805 L7.45983055,8.37034215 C7.45983055,8.6737438 7.7168249,8.92055239 8.03274789,8.92055239 Z M5.41369722,8.92055239 C5.72962021,8.92055239 5.98661455,8.6737438 5.98661455,8.37034215 L5.98661455,6.10662 C5.98661455,5.80321835 5.72962021,5.55640976 5.41369722,5.55640976 C5.09777423,5.55640976 4.84077989,5.80321835 4.84077989,6.10662 L4.84077989,8.37034215 C4.84077989,8.6737438 5.09777423,8.92055239 5.41369722,8.92055239 Z" id="形状"></path>
            </g>
        </g>
    </g>
</svg>