<?xml version="1.0" encoding="UTF-8"?>
<svg width="14px" height="14px" viewBox="0 0 14 14" version="1.1" xmlns="http://www.w3.org/2000/svg" xmlns:xlink="http://www.w3.org/1999/xlink">
    <title>消息</title>
    <g id="企业微信快捷回复" stroke="none" stroke-width="1" fill="none" fill-rule="evenodd">
        <g id="智慧小金-添加-语音录入倒计时" transform="translate(-266.000000, -346.000000)" fill="#FFFFFF" fill-rule="nonzero">
            <g id="消息" transform="translate(266.000000, 346.000000)">
                <path d="M7.22400841,0.154000179 C7.65800891,0.336000391 7.65800891,0.903001051 7.65800891,1.09200127 L7.65800891,12.908015 C7.65800891,13.0970152 7.65800891,13.6710159 7.22400841,13.8460161 C7.14700832,13.8740161 7.07700824,13.8880162 7.00000815,13.8880162 C6.7900079,13.8880162 6.59400767,13.776016 6.4470075,13.6290159 L3.9550046,10.7170125 L1.53300178,10.7170125 C0.812000945,10.7170125 0.217000253,10.1290118 0.217000253,9.40101094 L0.217000253,4.59200534 C0.217000253,3.8710045 0.805000937,3.27600381 1.53300178,3.27600381 L3.9550046,3.27600381 L6.47500753,0.350000407 C6.65000774,0.175000204 6.93700807,0.0350000407 7.22400841,0.154000179 Z M10.9270127,1.14800134 C11.0460129,1.21100141 13.790016,2.68800313 13.790016,7.00700815 C13.790016,11.3260132 11.0460129,12.8030149 10.9270127,12.866015 C10.8640126,12.901015 10.7940126,12.915015 10.7240125,12.915015 C10.5560123,12.908015 10.4090121,12.8170149 10.339012,12.6770148 C10.2270119,12.4670145 10.304012,12.2010142 10.5210122,12.0820141 C10.6190124,12.033014 12.915015,10.7660125 12.915015,7.00000815 C12.915015,3.65244869 11.1008895,2.28494093 10.6289218,1.98304758 L10.5569269,1.93870699 C10.5386851,1.92794052 10.5264567,1.92111335 10.5210122,1.91800223 C10.318012,1.8060021 10.2410119,1.55400181 10.346012,1.35100157 C10.4510122,1.13400132 10.7100125,1.04300121 10.9270127,1.14800134 Z M9.64601122,3.36000391 L9.67616207,3.3813586 C9.89486929,3.54268857 11.151013,4.58453867 11.151013,7.22400841 C11.151013,9.76921137 9.97732161,10.8288726 9.70175929,11.0459709 L9.65614931,11.0806069 C9.65129234,11.0841551 9.64787789,11.0866129 9.64601122,11.0880129 C9.57601114,11.130013 9.49201105,11.158013 9.40801095,11.158013 C9.33801087,11.207013 9.24701076,11.2350131 9.16301066,11.2350131 C8.91801038,11.2350131 8.72201015,11.0390128 8.72201015,10.8010126 C8.72201015,10.5630123 8.91801038,10.3600121 9.15601065,10.3600121 C9.20501071,10.325012 10.276012,9.54801111 10.276012,7.22400841 C10.276012,4.90700571 9.20501071,4.1230048 9.15601065,4.08800476 C8.95301042,3.9550046 8.90401036,3.68200428 9.03701052,3.47900405 C9.17001067,3.27600381 9.44301099,3.22700376 9.64601122,3.36000391 Z" id="形状"></path>
            </g>
        </g>
    </g>
</svg>