<?xml version="1.0" encoding="UTF-8"?>
<svg width="16px" height="16px" viewBox="0 0 16 16" version="1.1" xmlns="http://www.w3.org/2000/svg" xmlns:xlink="http://www.w3.org/1999/xlink">
    <title>统计</title>
    <g id="创客页面优化3" stroke="none" stroke-width="1" fill="none" fill-rule="evenodd">
        <g id="编组" fill="#FFFFFF" fill-rule="nonzero">
            <g id="统计">
                <path d="M15.3565491,4.97078703 L15.356549,4.97078674 C14.0844381,1.95617386 11.1295597,-0.0024846716 7.85754027,1.29408982e-05 L7.85754029,1.29408982e-05 C7.56469777,1.29408982e-05 7.3192756,0.221442151 7.28928807,0.512744053 L7.28928805,0.512744242 C7.28731452,0.532179421 7.2863177,0.551701631 7.2863177,0.57123681 L7.2863177,8.13902687 L7.2863177,8.13902694 C7.2863177,8.45450387 7.54206331,8.71024948 7.85754024,8.71024948 L15.4250959,8.71024948 L15.4250959,8.71024948 C15.7405728,8.71024948 15.9963331,8.45450387 15.9963331,8.13902694 L15.9963331,8.13894626 C15.9983768,7.05058249 15.7807652,5.97299061 15.3565178,4.97072382 L15.3565491,4.97078703 Z M5.43327192,1.45684232 L5.73716293,2.55815923 C3.03414416,3.30439447 1.14636071,5.78647548 1.14636071,8.59415063 C1.14636071,12.0461703 3.95472335,14.8547517 7.40696174,14.8547517 C10.2173687,14.8547473 12.6998982,12.9649169 13.4445443,10.2591482 L13.4445443,10.2591482 L14.5460894,10.5623532 C14.1159326,12.1073081 13.1988331,13.4722769 11.9310394,14.4544359 L11.9310394,14.4544359 L11.7000321,14.6259709 C9.05379221,16.5128718 5.46904054,16.4563393 2.8789661,14.456029 C-0.35693767,11.9569323 -0.954250865,7.30780191 1.54484579,4.0718919 L1.54484579,4.0718919 L1.74613059,3.82317715 C2.70869161,2.68466553 3.9925667,1.85901175 5.43327192,1.45684232 L5.43327192,1.45684232 Z M8.42876762,1.16529823 C11.831881,1.44222668 14.5541029,4.16444235 14.8305719,7.56779006 L8.42876762,7.56779006 L8.42876762,1.16529823 Z" id="形状"></path>
            </g>
        </g>
    </g>
</svg>