<?xml version="1.0" encoding="UTF-8"?>
<svg width="14px" height="14px" viewBox="0 0 14 14" version="1.1" xmlns="http://www.w3.org/2000/svg" xmlns:xlink="http://www.w3.org/1999/xlink">
    <title>用户</title>
    <g id="用户" stroke="none" stroke-width="1" fill="none" fill-rule="evenodd">
        <path d="M6.8516126,0.21 C8.75823374,0.21 10.303917,1.72894708 10.303917,3.60381905 C10.303917,5.47869103 8.75823374,6.99930912 6.8516126,6.99930912 C4.94499145,6.99930912 3.39930823,5.47869103 3.39930823,3.60381905 C3.40097924,1.72894708 4.94666246,0.21 6.8516126,0.21 Z M6.8516126,0.21 C8.75823374,0.21 10.303917,1.72894708 10.303917,3.60381905 C10.303917,5.47869103 8.75823374,6.99930912 6.8516126,6.99930912 C4.94499145,6.99930912 3.39930823,5.47869103 3.39930823,3.60381905 C3.40097924,1.72894708 4.94666246,0.21 6.8516126,0.21 Z M5.55825172,8.13225314 L8.43572902,8.13225314 C10.8987961,8.13225314 12.8939807,10.0956886 12.8939807,12.5169805 L12.8939807,12.799381 C12.8939807,13.753527 10.8971251,13.7902892 8.43572902,13.7902892 L5.55825172,13.7902892 C3.09518461,13.7902892 1.1,13.7886182 1.1,12.799381 L1.1,12.5169805 C1.1,10.0940176 3.09518461,8.13225314 5.55825172,8.13225314 Z" id="形状" fill="#FFFFFF" fill-rule="nonzero"></path>
    </g>
</svg>