<?xml version="1.0" encoding="UTF-8"?>
<svg width="16px" height="14px" viewBox="0 0 16 14" version="1.1" xmlns="http://www.w3.org/2000/svg" xmlns:xlink="http://www.w3.org/1999/xlink">
    <title>物流</title>
    <g id="创客页面优化3" stroke="none" stroke-width="1" fill="none" fill-rule="evenodd">
        <g id="编组" transform="translate(0.000000, -1.000000)" fill="#FFFFFF" fill-rule="nonzero">
            <g id="物流" transform="translate(0.000000, 1.000000)">
                <path d="M2.15090839,0 L2.15090828,0 C0.96365281,0.00138185952 0.00151713342,0.951102319 -1.59517373e-07,2.12314201 L-1.59517373e-07,11.6013364 L-1.59517373e-07,11.6012914 C0.000836452136,12.3225663 0.592960681,12.9070523 1.32360278,12.9078216 L2.28121018,12.9078216 L2.28121006,12.9078214 C3.01127284,13.9806667 4.4841184,14.2661342 5.57088983,13.5454312 C5.82602201,13.3762384 6.04539008,13.1596827 6.21678027,12.9078214 L9.31513608,12.9078214 L9.31513595,12.9078213 C10.0451987,13.9806665 11.5180443,14.2661341 12.6048157,13.5454311 C12.8599479,13.3762382 13.079316,13.1596825 13.2507062,12.9078213 L14.6773393,12.9078213 L14.6773394,12.9078213 C15.4079374,12.906971 16.0000182,12.322566 16.0009879,11.601336 L16.0009879,7.43416242 C16.0009879,6.21507176 15.4193884,5.29077304 14.2726032,4.6869193 C13.4332316,4.2458942 12.3706739,4.00512338 11.3102749,3.79252052 L11.3102749,2.12314025 L11.310275,2.12321249 C11.3089154,0.951152366 10.346771,0.0013504 9.15949073,0 L2.15090839,0 Z M11.2829691,12.963185 L11.282969,12.963185 C10.5209614,12.9632864 9.90314954,12.3535638 9.90303919,11.6013228 C9.90293131,10.8490845 10.5205724,10.2391933 11.2825828,10.2390844 C12.0445903,10.2389779 12.6624022,10.8487006 12.6625126,11.6009415 C12.6625126,11.6010701 12.6625126,11.6011988 12.6625126,11.6013274 L12.6625126,11.6012734 C12.6616811,12.3530528 12.0445683,12.9623013 11.2830242,12.963185 L11.2829691,12.963185 Z M4.24748579,12.9631818 L4.24748577,12.9631818 C3.48547818,12.9625406 2.86827461,12.352213 2.86892237,11.5999748 C2.8695705,10.8477365 3.48782439,10.2384458 4.24983197,10.2390853 C5.01145749,10.2397248 5.62850382,10.8494644 5.6283963,11.6013241 L5.6283963,11.6012702 C5.62756482,12.3530496 5.01045203,12.9622981 4.24890789,12.9631818 L4.24748579,12.9631818 Z M0.992792593,2.1231284 L0.992792593,2.12316744 C0.993531073,1.49206485 1.51157927,0.980623281 2.150878,0.979856686 L9.15939577,0.979856686 L9.15939578,0.979856686 C9.79912347,0.980047428 10.3178637,1.4916019 10.3187271,2.12312795 L10.3187271,4.59526824 L10.7175999,4.67417444 C13.3869768,5.20124475 15.0074856,5.64998754 15.0074856,7.43454364 L15.0074856,11.6017172 L15.0074856,11.6017166 C15.0064167,11.7814961 14.858934,11.9269164 14.6768184,11.9277701 L13.6316579,11.9277701 L13.6316579,11.9277701 C13.8161888,10.6472496 12.9142407,9.46151467 11.6170943,9.27935639 C10.3199547,9.0971913 9.11882066,9.98757601 8.93429669,11.2680923 C8.90276734,11.4868838 8.90276734,11.7089785 8.93429673,11.9277701 L6.59694713,11.9277701 L6.59694712,11.9277701 C6.78070419,10.6472592 5.87812846,9.462152 4.58099033,9.28074262 C3.28384944,9.0993414 2.08335122,9.99034565 1.89958587,11.2708538 C1.88387568,11.38033 1.87603968,11.4907672 1.87613665,11.6013367 L1.87613664,11.601327 C1.87627957,11.710548 1.88418079,11.8196242 1.89978213,11.9277701 L1.32365576,11.9277701 L1.32365574,11.9277701 C1.14131246,11.9270157 0.993649144,11.7813312 0.992792593,11.601327 L0.992792593,2.1231284 Z M10.813935,7.46154512 L10.813935,7.46154512 C10.5402428,7.4609069 10.3187148,7.24170113 10.3187148,6.97151647 L10.3187148,5.58245408 L10.3187148,5.58245459 C10.313275,5.31187235 10.5310636,5.08816951 10.8051599,5.08279926 C11.0792562,5.07742926 11.3058642,5.29242561 11.3113042,5.56300786 C11.3114345,5.56948903 11.3114345,5.57597213 11.3113042,5.58245323 L11.3113042,6.48225358 L12.2220082,6.48225358 L12.2220083,6.48225358 C12.4961584,6.4822536 12.7184009,6.70164688 12.7184009,6.97228223 C12.7184009,7.24291758 12.4961584,7.46231087 12.2220083,7.46231087 L10.813935,7.46154512 Z" id="形状"></path>
            </g>
        </g>
    </g>
</svg>