<?xml version="1.0" encoding="UTF-8"?>
<svg width="16px" height="16px" viewBox="0 0 16 16" version="1.1" xmlns="http://www.w3.org/2000/svg" xmlns:xlink="http://www.w3.org/1999/xlink">
    <title>物料中心</title>
    <g id="创客页面优化3" stroke="none" stroke-width="1" fill="none" fill-rule="evenodd">
        <g id="编组" fill="#FFFFFF" fill-rule="nonzero">
            <g id="物料中心">
                <path d="M6.12410088,0.0514097757 L1.23156393,0.0514097757 L1.23156392,0.0514097757 C0.552969379,0.0510946751 0.00260311375,0.600948356 0.00228748826,1.27954446 C0.00228748826,1.27954455 0.00228748826,1.27954463 0.00228748826,1.27954472 L0.00228748826,6.16923791 L0.00228748826,6.16926667 C0.00261878829,6.84786121 0.552997518,7.39770404 1.23159206,7.39737333 C1.23159215,7.39737333 1.23159223,7.39737333 1.23159232,7.39737333 L6.12412927,7.39737333 L6.12412931,7.39737333 C6.80272385,7.3980038 7.35334636,6.84840496 7.35397645,6.16981042 C7.35397645,6.16961979 7.35397645,6.16942916 7.35397645,6.16923852 L7.35397645,1.27954533 L7.35397645,1.27951604 C7.35364509,0.600921502 6.80326642,0.0510786749 6.12467188,0.0514097757 C6.12447165,0.0514097757 6.12427143,0.0514097757 6.1240712,0.0514097757 L6.12410088,0.0514097757 Z M1.23156393,6.35202788 L1.23156394,6.35202788 C1.13250398,6.35172953 1.05244185,6.27118448 1.05273725,6.17212515 C1.05273725,6.17116185 1.05273725,6.17019859 1.05273725,6.16923546 L1.05273725,1.27954227 L1.05273725,1.27954248 C1.05087725,1.18050018 1.12963203,1.09867509 1.22867402,1.09675094 C1.22963714,1.09675094 1.23060041,1.09675094 1.23156371,1.09675094 L6.12410065,1.09675094 L6.12410065,1.09675094 C6.22347608,1.09705388 6.30378992,1.17785916 6.3034881,1.27723396 C6.3034881,1.27800347 6.3034881,1.27877297 6.3034881,1.27954238 L6.3034881,6.16923557 L6.3034881,6.16923551 C6.30504284,6.26859891 6.22577204,6.35042791 6.12640849,6.35202788 C6.12563907,6.35202788 6.12486958,6.35202788 6.12410007,6.35202788 L1.23156312,6.35202788 L1.23156393,6.35202788 Z M6.12410088,8.64263839 L1.23156393,8.64263839 L1.23156392,8.64263839 C0.552969379,8.64232342 0.00260311374,9.1921771 0.00228748823,9.8707732 C0.00228748823,9.87077329 0.00228748823,9.87077337 0.00228748823,9.87077345 L0.00228748823,14.7604666 L0.00228748823,14.7604749 C0.00228748823,15.4401288 0.551922503,15.9917998 1.23157173,15.9943138 L6.12410867,15.9943138 L6.12410871,15.9943138 C6.80398138,15.9921105 7.35395702,15.4403429 7.35395702,14.7604671 L7.35395702,9.8707739 L7.35395702,9.87074465 C7.35362566,9.19215011 6.80324699,8.64230729 6.12465245,8.64263839 C6.12446182,8.64263839 6.12427119,8.64263839 6.12408056,8.64263839 L6.12410088,8.64263839 Z M1.23156393,14.9432563 L1.23156394,14.9432563 C1.13250398,14.9429583 1.05244185,14.8624132 1.0527379,14.7633539 C1.0527379,14.7623906 1.0527379,14.7614273 1.0527379,14.7604642 L1.0527379,9.87077102 L1.0527379,9.87077125 C1.05339959,9.77256504 1.13335624,9.69337416 1.23156464,9.69368759 L6.12410158,9.69368759 L6.12410157,9.69368759 C6.22252903,9.69305838 6.30283303,9.77233644 6.30348904,9.87076343 C6.30348904,9.87076587 6.30348904,9.87076832 6.30348904,9.87077076 L6.30348904,14.7604639 L6.30348904,14.7604639 C6.30504378,14.8598273 6.22577299,14.9416563 6.12640943,14.9432563 C6.12564001,14.9432563 6.12487052,14.9432563 6.12410101,14.9432563 L1.23156407,14.9432563 L1.23156393,14.9432563 Z M14.7164702,8.64263671 L9.82621456,8.64263671 L9.82621461,8.64263671 C9.1479357,8.64200798 8.59756943,9.19135054 8.59693751,9.86962945 C8.59693751,9.87001044 8.59693751,9.87039142 8.59693751,9.87077241 L8.59693751,14.7604656 L8.59693751,14.7604412 C8.59660579,15.4402248 9.14641018,15.9920942 9.82619065,15.9943114 L14.7187276,15.9943114 L14.7187275,15.9943114 C15.398508,15.9921075 15.9483227,15.4402483 15.9480041,14.7604647 L15.9480041,9.87077147 L15.9480041,9.87077095 C15.9480041,9.19249048 15.3981502,8.64263671 14.7198697,8.64263671 C14.7194887,8.64263671 14.7191078,8.64263671 14.7187268,8.64263671 L14.7164702,8.64263671 Z M9.82393331,14.9432558 L9.82393331,14.9432558 C9.72487335,14.9429583 9.64481123,14.8624132 9.64510728,14.7633539 C9.64510728,14.7623906 9.64510728,14.7614273 9.64510728,14.7604642 L9.64510728,9.87077102 L9.64510728,9.87077125 C9.64576896,9.77256504 9.72572562,9.69337416 9.82393401,9.6936904 L14.716471,9.6936904 L14.716471,9.6936904 C14.8146787,9.69337456 14.8946352,9.77256488 14.8952983,9.87077125 L14.8952983,14.7604644 L14.8952983,14.7604642 C14.8971583,14.8595065 14.8184036,14.9413316 14.7193616,14.9432558 C14.7183984,14.9432558 14.7174352,14.9432558 14.7164719,14.9432558 L9.82621618,14.9432558 L9.82393331,14.9432558 Z M12.2699205,1.14815568 L12.2699204,1.14815568 C13.6927299,1.14879239 14.8456422,2.30271909 14.8450018,3.72552387 C14.8443706,5.14833333 13.6904439,6.30124561 12.2676392,6.30060525 C10.845275,6.29997429 9.69255795,5.14674427 9.69255795,3.72438324 L9.69255795,3.7244868 C9.69376133,2.30175233 10.847089,1.14884318 12.2698266,1.14815568 M12.2698266,-8.42194541e-06 L12.2698268,-8.42194541e-06 C10.2129025,-0.000637659954 8.5449318,1.66632347 8.544291,3.72323211 C8.54366011,5.78015638 10.2106212,7.44812707 12.2675299,7.44876788 C14.3244542,7.44939877 15.9924248,5.78243764 15.9930656,3.72552899 C15.9930656,3.72514823 15.9930656,3.72476747 15.9930656,3.72438671 L15.9930656,3.72438654 C15.9930656,1.66791539 14.3262981,0.0006322038 12.2698269,-8.42194541e-06 L12.2698266,-8.42194541e-06 Z" id="形状"></path>
            </g>
        </g>
    </g>
</svg>